<?xml version="1.0" encoding="utf-8" ?><svg xmlns="http://www.w3.org/2000/svg" xmlns:xlink="http://www.w3.org/1999/xlink" width="905" height="1024" viewBox="0 0 905 1024"><path fill="#ED9C03" d="M522.689 80.813C538.365 72.1527 540.85 76.4391 548.809 57.0872C550.797 52.2529 555.095 42.2994 557.339 37.0689C557.789 36.0197 558.567 36.2958 559.282 36.4556C564.094 41.016 568.651 63.0565 577.228 71.3051C584.777 78.5643 607.189 84.4952 610.431 88.9252C610.482 94.7277 578.246 101.509 575.195 109.337C575.201 109.322 574.242 110.766 574.238 110.773C582.273 116.467 587.758 118.697 589.593 129.564C590.137 132.792 590.234 136.246 591.735 139.107C602.878 139.809 601.652 151.503 601.465 159.361C607.448 158.82 623.06 153.387 629.657 151.47C641.763 147.952 654.303 144.078 666.462 140.612C678.252 137.252 692.529 131.851 704.109 128.977C707.369 130.088 709.147 130.426 710.893 133.715C713.167 137.999 711.788 147.93 709.949 152.301C706.312 160.946 701.412 163.882 693.321 167.278L692.829 167.483C693.578 185.672 690.94 192.832 684.801 209.974C683.729 212.967 677.316 225.5 677.516 227.056C686.076 233.244 695.122 238.434 704.093 244.041C716.511 251.866 728.843 259.826 741.087 267.92C755.143 277.135 771.917 288.22 784.276 299.56C789.59 303.839 793.233 307.368 797.882 312.196C826.204 338.952 847.534 379.785 854.705 418.042C859.555 442.056 861.074 467.392 861.588 491.844C861.703 497.306 862.61 502.943 862.677 508.434C862.771 533.579 863.624 559.773 863.345 584.843C863.39 597.164 863.268 609.486 862.978 621.804C862.817 639.957 862.429 658.107 861.812 676.25C861.25 697.624 861.228 713.523 858.67 734.739C858.167 744.388 855.071 762.699 852.453 772.222C851.072 781.428 846.74 791.879 843.503 800.613C829.945 837.187 804.166 868.135 772.721 890.904C706.972 938.513 635.782 979.199 562.765 1014.57C555.918 1017.89 547.103 1019.95 540.799 1024L368.521 1024C363.21 1020.73 352.22 1015.94 346.32 1013.12C335.164 1007.71 324.08 1002.16 313.071 996.469C267.043 972.872 222.345 946.766 179.179 918.269C158.986 905.006 135.626 889.908 118.283 873.209C76.9475 834.158 53.1688 780.045 52.3597 723.186C51.0851 714.453 51.0727 699.86 51.0776 690.712C49.3421 644.021 48.6512 597.298 49.0052 550.577C48.9628 529.099 49.2773 507.623 49.9484 486.156C50.4379 470.213 50.4191 453.629 52.628 437.875C54.5124 424.434 57.0597 410.565 61.0989 397.6C73.1532 358.385 96.4445 323.567 128.089 297.457C141.979 286.103 160.835 274.149 175.954 264.169C195.124 251.514 214.114 238.965 234.481 228.285C234.072 227.06 229.186 217.771 228.263 215.725C220.098 197.645 217.776 187.636 217.525 168.188C212.944 163.14 204.487 161.871 200.776 154.433C198.475 149.823 196.617 128.949 204.538 129.094C211.032 129.213 222.822 134.426 229.688 136.416C239.918 139.382 250.697 142.511 260.959 145.57C266.875 147.302 305.963 161.522 309.887 159.645C308.989 152.977 309.712 140.793 318.177 139.458C319.565 134.865 318.097 129.895 319.939 125.338C320.863 123.051 322.6 121.466 324.44 119.911C334.467 111.439 346.495 104.724 357.549 97.6701C366.639 91.8693 377.816 83.2979 387.902 79.6353C391.365 78.3781 502.705 78.3936 515.683 79.1396C518.278 79.2887 520.313 79.7023 522.689 80.813Z"/><path fill="#F08F02" d="M522.689 80.813C538.365 72.1527 540.85 76.4391 548.809 57.0872C550.797 52.2529 555.095 42.2994 557.339 37.0689C557.789 36.0197 558.567 36.2958 559.282 36.4556C564.094 41.016 568.651 63.0565 577.228 71.3051C584.777 78.5643 607.189 84.4952 610.431 88.9252C610.482 94.7277 578.246 101.509 575.195 109.337C575.201 109.322 574.242 110.766 574.238 110.773C582.273 116.467 587.758 118.697 589.593 129.564C590.137 132.792 590.234 136.246 591.735 139.107C602.878 139.809 601.652 151.503 601.465 159.361C607.448 158.82 623.06 153.387 629.657 151.47C641.763 147.952 654.303 144.078 666.462 140.612C678.252 137.252 692.529 131.851 704.109 128.977C707.369 130.088 709.147 130.426 710.893 133.715C713.167 137.999 711.788 147.93 709.949 152.301C706.312 160.946 701.412 163.882 693.321 167.278L692.829 167.483C693.578 185.672 690.94 192.832 684.801 209.974C683.729 212.967 677.316 225.5 677.516 227.056C675.217 229.186 672.15 234.181 670.351 236.951C664.235 246.369 656.759 253.602 648.847 261.494C637.001 272.466 626.734 280.307 611.646 286.81C605.809 289.325 599.559 290.974 593.911 293.22C596.011 315.32 578.001 323.11 559.133 316.704C557.284 316.076 556.172 314.745 554.529 315.565L554.365 315.842C538.57 329.954 519.444 341.787 498.929 347.541C493.612 348.977 488.24 350.203 482.827 351.216C479.578 351.821 475.376 352.488 472.029 353.023C471.281 353.143 471.317 355.178 471.268 355.872C471.206 358.213 471.1 360.693 471.084 363.022C462.746 362.716 454.578 362.511 446.244 362.868C444.245 362.953 441.581 363.122 439.623 363.002C419.571 365.344 378.535 371.736 365.806 388.604C360.65 395.436 358.03 403.016 356.146 411.289C355.675 412.499 355.685 412.371 354.967 413.483C353.397 413.268 346.297 403.743 344.203 401.464C328.363 384.226 308.093 363.024 289.72 348.721C272.636 334.04 247.617 314.432 229.447 301.677C223.939 298.296 219.177 294.733 213.388 291.684C216.06 289.66 219.434 287.644 222.399 286.063C235.751 278.943 248.868 268.798 262.219 262.006C257.665 257.442 251.747 251.756 247.69 246.921C243.137 241.497 238.672 234.182 234.481 228.285C234.072 227.06 229.186 217.771 228.263 215.725C220.098 197.645 217.776 187.636 217.525 168.188C212.944 163.14 204.487 161.871 200.776 154.433C198.475 149.823 196.617 128.949 204.538 129.094C211.032 129.213 222.822 134.426 229.688 136.416C239.918 139.382 250.697 142.511 260.959 145.57C266.875 147.302 305.963 161.522 309.887 159.645C308.989 152.977 309.712 140.793 318.177 139.458C319.565 134.865 318.097 129.895 319.939 125.338C320.863 123.051 322.6 121.466 324.44 119.911C334.467 111.439 346.495 104.724 357.549 97.6701C366.639 91.8693 377.816 83.2979 387.902 79.6353C391.365 78.3781 502.705 78.3936 515.683 79.1396C518.278 79.2887 520.313 79.7023 522.689 80.813Z"/><path fill="#FDC525" d="M522.689 80.813C538.365 72.1527 540.85 76.4391 548.809 57.0872C550.797 52.2529 555.095 42.2994 557.339 37.0689C557.789 36.0197 558.567 36.2958 559.282 36.4556C564.094 41.016 568.651 63.0565 577.228 71.3051C584.777 78.5643 607.189 84.4952 610.431 88.9252C610.482 94.7277 578.246 101.509 575.195 109.337C575.201 109.322 574.242 110.766 574.238 110.773C582.273 116.467 587.758 118.697 589.593 129.564C590.137 132.792 590.234 136.246 591.735 139.107C602.878 139.809 601.652 151.503 601.465 159.361C600.164 165.162 600.949 174.02 599.945 180.461C590.322 242.188 533.997 285.5 473.528 290.678C402.029 296.801 321.72 256.066 310.994 179.473C310.035 172.628 310.261 166.436 309.887 159.645C308.989 152.977 309.712 140.793 318.177 139.458C319.565 134.865 318.097 129.895 319.939 125.338C320.863 123.051 322.6 121.466 324.44 119.911C334.467 111.439 346.495 104.724 357.549 97.6701C366.639 91.8693 377.816 83.2979 387.902 79.6353C391.365 78.3781 502.705 78.3936 515.683 79.1396C518.278 79.2887 520.313 79.7023 522.689 80.813Z"/><path fill="#C77906" d="M522.689 80.813C538.365 72.1527 540.85 76.4391 548.809 57.0872C550.797 52.2529 555.095 42.2994 557.339 37.0689C557.789 36.0197 558.567 36.2958 559.282 36.4556C564.094 41.016 568.651 63.0565 577.228 71.3051C584.777 78.5643 607.189 84.4952 610.431 88.9252C610.482 94.7277 578.246 101.509 575.195 109.337C575.201 109.322 574.242 110.766 574.238 110.773C582.273 116.467 587.758 118.697 589.593 129.564C590.137 132.792 590.234 136.246 591.735 139.107C589.694 140.454 578.464 142.122 575.489 142.783C556.789 146.938 535.97 152.513 517.007 147.078C514.849 146.46 506.968 143.943 506.167 142.488C507.503 142.138 508.406 142.162 509.208 141.329C505.617 139.37 502.854 142.367 499.446 141.588C497.037 141.037 492.777 139.06 490.46 138.415C482.204 136.117 461.982 128.193 454.744 128.205C441.728 132.151 428.802 136.39 415.978 140.92C410.128 142.924 397.9 147.709 392.119 148.453C373.379 150.864 349.507 143.846 331.11 141.449C327.883 140.519 321.113 140.787 318.177 139.458C319.565 134.865 318.097 129.895 319.939 125.338C320.863 123.051 322.6 121.466 324.44 119.911C334.467 111.439 346.495 104.724 357.549 97.6701C366.639 91.8693 377.816 83.2979 387.902 79.6353C391.365 78.3781 502.705 78.3936 515.683 79.1396C518.278 79.2887 520.313 79.7023 522.689 80.813Z"/><path fill="#FEFEFE" d="M522.689 80.813C538.365 72.1527 540.85 76.4391 548.809 57.0872C550.797 52.2529 555.095 42.2994 557.339 37.0689C557.789 36.0197 558.567 36.2958 559.282 36.4556C564.094 41.016 568.651 63.0565 577.228 71.3051C584.777 78.5643 607.189 84.4952 610.431 88.9252C610.482 94.7277 578.246 101.509 575.195 109.337C575.201 109.322 574.242 110.766 574.238 110.773C569.02 116.374 563.254 139.784 558.881 142.08C554.256 140.443 548.983 115.864 542.442 109.011C532.429 98.5215 521.078 98.4563 509.262 91.2812C508.143 90.6016 507.878 89.9099 507.771 88.8197C511.099 84.3181 518.639 84.4501 522.689 80.813Z"/><path fill="#F08F02" d="M395.401 88.2562C412.204 87.6174 429.397 88.3124 446.234 88.0612C449.08 88.0187 460.81 88.2481 459.866 92.9039C456.659 96.4672 446.363 100.008 441.404 102.016C434.718 105.003 413.135 115.122 406.504 112.974C404.592 112.354 390.098 94.0914 389.225 92.1052C389.47 88.7794 392.637 88.4415 395.401 88.2562Z"/><path fill="#FCE389" d="M454.744 128.205C457.234 130.112 464.365 132.705 461.488 138.245C459.721 141.647 454.016 143.052 450.438 143.887L448.447 144.341C446.235 145.444 444.017 146.535 441.793 147.612C442.256 148.39 442.095 148.128 442.191 149.121L441.398 149.741C440.665 149.773 440.101 149.794 439.419 149.479C438.514 149.061 438.02 148.744 436.973 148.747C434.615 148.754 431.231 150.244 428.959 150.96C416.09 155.015 401.664 162.29 388.085 162.845C379.648 163.19 330.539 157.599 326.732 152.845C325.636 151.476 325.472 149.666 325.816 147.999C326.522 144.569 328.402 143.286 331.11 141.449C349.507 143.846 373.379 150.864 392.119 148.453C397.9 147.709 410.128 142.924 415.978 140.92C428.802 136.39 441.728 132.151 454.744 128.205Z"/><path fill="#FEFEFE" d="M441.061 138.987C445.131 140.145 447.564 139.964 448.447 144.341C446.235 145.444 444.017 146.535 441.793 147.612L439.734 147.914C438.091 147.39 438.17 147.328 437.132 146.037C435.98 142.022 438.052 140.781 441.061 138.987Z"/><path fill="#FDDF68" d="M491.232 156.335C495.691 156.151 500.046 158.794 503.756 159.177C529.451 161.833 548.564 195.404 546.277 219.252C545.119 231.325 536.531 246.139 527.501 254.095C517.911 263.163 500.146 271.726 486.687 270.245C482.164 270.315 475.772 270.969 471.286 269.18C414.337 246.473 417.809 179.34 474.771 159.985C478.372 158.761 479.225 159.134 482.748 160.4C482.653 160.366 490.296 156.745 491.232 156.335Z"/><path fill="#FEFEFE" d="M486.033 159.165C486.886 159.414 488.016 159.563 488.411 160.198C494.597 170.16 496.769 182.284 503.606 192.103C510.297 201.712 534.373 206.214 539.35 212.535C539.435 216.348 513.882 224.724 508.737 228.779C496.992 238.037 496.041 254.811 488.4 266.204C487.936 266.156 487.654 266.143 487.185 266.008C483.412 264.922 474.998 238.775 469.952 232.786C462.086 223.45 438.26 218.563 434.795 213.198C434.829 211.882 434.966 211.365 436.327 210.622C450.384 202.955 468.641 201.389 475.288 184.682C478.543 176.5 481.991 166.91 486.033 159.165Z"/><defs><linearGradient id="gradient_0" gradientUnits="userSpaceOnUse" x1="334.8671" y1="299.95969" x2="332.67581" y2="411.06958"><stop offset="0" stop-color="#FADD76"/><stop offset="1" stop-color="#FFFCE2"/></linearGradient></defs><path fill="url(#gradient_0)" d="M262.219 262.006C279.027 276.912 294.685 286.633 316.533 293.085C316.084 315.137 331.219 322.715 350.944 317.421C352.676 316.068 353.823 315.437 355.699 314.348C369.121 328.635 393.423 341.839 412.069 347.486C420.867 350.151 430.331 351.729 439.41 353.187L439.623 363.002C419.571 365.344 378.535 371.736 365.806 388.604C360.65 395.436 358.03 403.016 356.146 411.289C355.675 412.499 355.685 412.371 354.967 413.483C353.397 413.268 346.297 403.743 344.203 401.464C328.363 384.226 308.093 363.024 289.72 348.721C272.636 334.04 247.617 314.432 229.447 301.677C223.939 298.296 219.177 294.733 213.388 291.684C216.06 289.66 219.434 287.644 222.399 286.063C235.751 278.943 248.868 268.798 262.219 262.006Z"/><defs><linearGradient id="gradient_1" gradientUnits="userSpaceOnUse" x1="294.51001" y1="271.69345" x2="282.65497" y2="320.24811"><stop offset="0" stop-color="#F5C449"/><stop offset="1" stop-color="#FCE685"/></linearGradient></defs><path fill="url(#gradient_1)" d="M262.219 262.006C279.027 276.912 294.685 286.633 316.533 293.085C316.084 315.137 331.219 322.715 350.944 317.421C352.605 318.412 353.43 315.641 355.675 315.651C356.546 316.748 357.151 317.261 358.167 318.188C353.534 320.715 348.462 326.453 346.658 327.27C328.852 335.335 304.42 326.54 288.01 318.34C282.929 315.802 279.825 312.845 274.363 310.48C266.915 307.564 258.827 306.743 251.125 304.768C249.002 304.224 245.564 302.339 243.5 301.332C240.478 299.857 238.103 298.924 234.855 297.9L229.447 301.677C223.939 298.296 219.177 294.733 213.388 291.684C216.06 289.66 219.434 287.644 222.399 286.063C235.751 278.943 248.868 268.798 262.219 262.006Z"/><path fill="#FDC525" d="M250.183 176.928C255.236 178.398 286.736 187.112 288.795 188.646C289.549 191.278 288.027 193.985 286.946 196.486C289.645 208.868 297.039 217.665 310.62 213.021C311.375 219.584 312.466 225.941 313.635 232.441C315.996 244.772 318.011 251.457 321.711 263.312C311.262 259.824 297.425 252.658 289.057 245.477C277.531 236.62 267.178 224.829 260.538 211.844C254.25 201.935 250.908 188.558 250.183 176.928Z"/><path fill="#C6A5DD" d="M250.183 176.928C255.236 178.398 286.736 187.112 288.795 188.646C289.549 191.278 288.027 193.985 286.946 196.486C282.818 199.703 265.458 209.493 260.538 211.844C254.25 201.935 250.908 188.558 250.183 176.928Z"/><path fill="#FDC525" d="M289.057 245.477C292.891 244.372 308.942 234.618 313.635 232.441C315.996 244.772 318.011 251.457 321.711 263.312C311.262 259.824 297.425 252.658 289.057 245.477Z"/><path fill="#FDC525" d="M620.766 188.194C627.555 185.829 634.596 184.145 641.521 182.204C647.724 180.466 653.765 178.505 660.083 177.245C659.509 188.351 656.687 203.13 649.948 212.276C643.359 223.111 631.856 239.266 620.95 246.024C611.828 253.801 600.817 258.607 590.005 263.565C592.268 253.643 595.077 243.697 597.446 233.738C598.671 227.899 599.694 219.382 600.648 213.255C614.058 217.183 618.35 212.017 622.756 199.952C623.272 198.539 623.123 198.382 624.016 197.139C622.7 194.132 621.801 191.308 620.766 188.194Z"/><path fill="#C6A5DD" d="M620.766 188.194C627.555 185.829 634.596 184.145 641.521 182.204C647.724 180.466 653.765 178.505 660.083 177.245C659.509 188.351 656.687 203.13 649.948 212.276C640.975 206.225 632.483 202.678 624.016 197.139C622.7 194.132 621.801 191.308 620.766 188.194Z"/><path fill="#FDC525" d="M597.446 233.738C601.272 233.99 607.295 238.757 611.153 240.488C613.236 241.423 619.735 244.579 620.95 246.024C611.828 253.801 600.817 258.607 590.005 263.565C592.268 253.643 595.077 243.697 597.446 233.738Z"/><defs><linearGradient id="gradient_2" gradientUnits="userSpaceOnUse" x1="85.840004" y1="727.90649" x2="322.52383" y2="532.89832"><stop offset="0" stop-color="#C46F03"/><stop offset="1" stop-color="#FCD868"/></linearGradient></defs><path fill="url(#gradient_2)" d="M234.481 228.285C238.672 234.182 243.137 241.497 247.69 246.921C251.747 251.756 257.665 257.442 262.219 262.006C248.868 268.798 235.751 278.943 222.399 286.063C219.434 287.644 216.06 289.66 213.388 291.684C207.786 295.234 173.505 316.241 171.876 319.69C171.85 319.744 171.851 319.807 171.839 319.866C167.114 338.372 166.178 375.558 166.105 395.17C166.068 405.289 167.512 417.879 167.536 427.923C168.997 469.667 182.417 530.425 202.36 566.971C194.175 585.319 185.214 603.432 175.934 621.264C174.471 624.075 172.921 626.89 171.282 629.603C166.471 638.593 155.698 656.665 157.541 666.668C159.351 676.487 177.847 679.504 182.978 684.043C182.64 686.7 180.659 686.772 181.532 689.776C177.019 691.567 176.342 695.656 173.816 699.115C160.54 717.3 172.537 724.514 186.821 737.054C226.148 771.575 270.954 802.485 319.096 823.522C319.25 823.577 319.404 823.632 319.558 823.687C334.419 829.862 348.811 835.384 364.348 839.679C368.201 840.744 375.719 843.105 379.599 843.691L366.47 887.088L366.56 887.405C363.033 899.231 358.588 917.011 356.37 929.279C362.313 932.047 374.592 938.095 380.513 940.267C378.29 941.371 375.249 941.22 372.757 941.746C365.677 943.243 359.763 948.332 356.999 954.993C354.692 960.664 354.773 967.025 357.223 972.636C358.821 976.317 361.072 978.001 362.573 980.732C359.794 980.026 352.205 976.363 349.426 975.062C338.958 970.227 328.62 965.113 318.425 959.727C260.265 929.669 203.982 896.11 149.887 859.235C139.125 851.767 124.897 841.309 115.657 832.411C82.883 800.847 62.8281 759.722 54.7244 715.34C54.0112 719.164 52.5748 719.388 52.3597 723.186C51.0851 714.453 51.0727 699.86 51.0776 690.712C49.3421 644.021 48.6512 597.298 49.0052 550.577C48.9628 529.099 49.2773 507.623 49.9484 486.156C50.4379 470.213 50.4191 453.629 52.628 437.875C54.5124 424.434 57.0597 410.565 61.0989 397.6C73.1532 358.385 96.4445 323.567 128.089 297.457C141.979 286.103 160.835 274.149 175.954 264.169C195.124 251.514 214.114 238.965 234.481 228.285Z"/><path fill="#FDC525" d="M234.481 228.285C238.672 234.182 243.137 241.497 247.69 246.921C251.747 251.756 257.665 257.442 262.219 262.006C248.868 268.798 235.751 278.943 222.399 286.063C219.434 287.644 216.06 289.66 213.388 291.684C207.786 295.234 173.505 316.241 171.876 319.69C171.85 319.744 171.851 319.807 171.839 319.866C167.518 321.136 152.889 334.494 149.466 337.898C105.426 379.023 97.1672 417.142 93.7991 475.417C92.9731 489.527 92.2896 503.644 91.7485 517.768C90.0996 560.929 90.414 604.142 92.6908 647.274C93.509 665.961 94.5968 689.446 97.2344 707.772C99.1633 721.174 111.479 758.817 120.709 768.683C123.066 772.864 129.312 782.453 132.791 785.904C134.867 788.98 137.756 792.258 140.343 794.93C147.704 802.848 155.951 809.893 164.922 815.926C168.821 818.962 178.339 825.859 182.749 828.192C193.761 836.276 210.025 846.409 221.701 853.617C234.235 861.354 252.384 873.226 265.349 879.794C272.101 884.719 285.908 891.662 293.646 896.267C299.057 899.746 353.981 929.177 356.37 929.279C362.313 932.047 374.592 938.095 380.513 940.267C378.29 941.371 375.249 941.22 372.757 941.746C365.677 943.243 359.763 948.332 356.999 954.993C354.692 960.664 354.773 967.025 357.223 972.636C358.821 976.317 361.072 978.001 362.573 980.732C359.794 980.026 352.205 976.363 349.426 975.062C338.958 970.227 328.62 965.113 318.425 959.727C260.265 929.669 203.982 896.11 149.887 859.235C139.125 851.767 124.897 841.309 115.657 832.411C82.883 800.847 62.8281 759.722 54.7244 715.34C54.0112 719.164 52.5748 719.388 52.3597 723.186C51.0851 714.453 51.0727 699.86 51.0776 690.712C49.3421 644.021 48.6512 597.298 49.0052 550.577C48.9628 529.099 49.2773 507.623 49.9484 486.156C50.4379 470.213 50.4191 453.629 52.628 437.875C54.5124 424.434 57.0597 410.565 61.0989 397.6C73.1532 358.385 96.4445 323.567 128.089 297.457C141.979 286.103 160.835 274.149 175.954 264.169C195.124 251.514 214.114 238.965 234.481 228.285Z"/><path fill="#C77906" d="M51.0776 690.712C52.7889 698.685 53.0901 707.457 54.7244 715.34C54.0112 719.164 52.5748 719.388 52.3597 723.186C51.0851 714.453 51.0727 699.86 51.0776 690.712Z"/><path fill="#ED9C03" d="M319.558 823.687C334.419 829.862 348.811 835.384 364.348 839.679C368.201 840.744 375.719 843.105 379.599 843.691L366.47 887.088L366.56 887.405C363.033 899.231 358.588 917.011 356.37 929.279C353.981 929.177 299.057 899.746 293.646 896.267C294.51 894.015 295.342 891.309 296.047 888.99C300.337 874.883 305.658 861.194 310.508 847.29C312.9 839.508 315.389 830.614 319.558 823.687Z"/><path fill="#F08F02" d="M319.558 823.687C334.419 829.862 348.811 835.384 364.348 839.679C368.201 840.744 375.719 843.105 379.599 843.691L366.47 887.088C362.21 884.333 356.38 881.877 351.793 879.167C337.773 870.884 321.213 859.664 310.508 847.29C312.9 839.508 315.389 830.614 319.558 823.687Z"/><path fill="#FDDF68" d="M149.466 337.898C152.889 334.494 167.518 321.136 171.839 319.866C167.114 338.372 166.178 375.558 166.105 395.17C166.068 405.289 167.512 417.879 167.536 427.923C168.997 469.667 182.417 530.425 202.36 566.971C194.175 585.319 185.214 603.432 175.934 621.264C174.471 624.075 172.921 626.89 171.282 629.603L170.987 629.231C171.75 626.599 179.139 613.442 181.054 610.51C182.118 608.879 182.715 605.15 184.185 602.657C185.541 600.357 188.131 596.085 188.731 593.793C186.691 589.42 188.302 575.821 187.599 569.921C184.048 540.134 171.791 511.378 164.079 482.49C156.28 453.279 152.71 423.899 155.124 393.63C155.494 388.991 154.643 383.673 154.893 378.96C156.303 363.113 160.489 348.231 157.151 332.311C155.222 334.241 151.967 337.466 149.466 337.898Z"/><defs><linearGradient id="gradient_3" gradientUnits="userSpaceOnUse" x1="158.98018" y1="810.9704" x2="187.79402" y2="765.90912"><stop offset="0" stop-color="#D17A10"/><stop offset="1" stop-color="#DFA33C"/></linearGradient></defs><path fill="url(#gradient_3)" d="M152.134 779.531C156.101 766.013 165.549 758.205 179.551 765.441C185.104 764.848 187.796 764.78 192.299 768.101C200.489 774.14 209.317 790.19 198.69 798.244C191.756 803.499 184.676 815.526 176.1 816.321C171.711 816.728 168.542 813.58 164.922 815.926C155.951 809.893 147.704 802.848 140.343 794.93C141.331 793.731 141.803 792.297 142.033 790.766C142.943 784.714 147.09 782.656 152.134 779.531Z"/><path fill="#B16C1B" d="M182.749 828.192L183.597 827.933C184.733 828.708 185.244 829.062 186.487 829.708C190.565 828.82 196.505 826.311 200.13 828.794C201.874 829.989 202.431 832.044 203.826 833.601C202.598 839.116 202.162 841.008 207.937 844.289C211.21 846.148 214.711 847.648 217.772 849.861L218.372 849.637C220.207 848.97 220.643 848.628 222.435 849.004C224.127 850.37 223.662 850.869 223.419 853.031C225.529 856.569 250.079 869.402 254.749 872.911C256.625 874.32 264.995 877.843 265.349 879.794C252.384 873.226 234.235 861.354 221.701 853.617C210.025 846.409 193.761 836.276 182.749 828.192Z"/><path fill="#B16C1B" d="M120.709 768.683C121.113 768.848 124.66 770.715 124.504 770.753C134.801 768.261 128.29 779.987 132.538 784.483C132.84 784.802 132.821 785.521 132.791 785.904C129.312 782.453 123.066 772.864 120.709 768.683Z"/><path fill="#FDDF68" d="M813.902 435.95C814.999 430.543 816.544 425.605 820.312 421.483C831.615 409.117 843.331 414.588 853.24 423.731C854.229 422.337 854.05 419.99 854.705 418.042C859.555 442.056 861.074 467.392 861.588 491.844C861.703 497.306 862.61 502.943 862.677 508.434C862.771 533.579 863.624 559.773 863.345 584.843C863.39 597.164 863.268 609.486 862.978 621.804C862.817 639.957 862.429 658.107 861.812 676.25C861.25 697.624 861.228 713.523 858.67 734.739C858.167 744.388 855.071 762.699 852.453 772.222C851.072 781.428 846.74 791.879 843.503 800.613C829.945 837.187 804.166 868.135 772.721 890.904C706.972 938.513 635.782 979.199 562.765 1014.57C555.918 1017.89 547.103 1019.95 540.799 1024L368.521 1024C363.21 1020.73 352.22 1015.94 346.32 1013.12C335.164 1007.71 324.08 1002.16 313.071 996.469C267.043 972.872 222.345 946.766 179.179 918.269C158.986 905.006 135.626 889.908 118.283 873.209C76.9475 834.158 53.1688 780.045 52.3597 723.186C52.5748 719.388 54.0112 719.164 54.7244 715.34C62.8281 759.722 82.883 800.847 115.657 832.411C124.897 841.309 139.125 851.767 149.887 859.235C203.982 896.11 260.265 929.669 318.425 959.727C328.62 965.113 338.958 970.227 349.426 975.062C352.205 976.363 359.794 980.026 362.573 980.732C361.072 978.001 358.821 976.317 357.223 972.636C354.773 967.025 354.692 960.664 356.999 954.993C359.763 948.332 365.677 943.243 372.757 941.746C375.249 941.22 378.29 941.371 380.513 940.267C374.592 938.095 362.313 932.047 356.37 929.279C358.588 917.011 363.033 899.231 366.56 887.405L366.47 887.088L379.599 843.691C426.967 856.779 483.746 856.052 531.222 843.83C534.572 856.117 538.885 868.308 542.155 880.644C542.653 882.522 543.257 884.629 544.004 886.417L543.924 886.979C547.622 901.505 550.939 914.561 554.343 929.188C558.289 928.099 571.166 920.992 575.255 918.8C588.645 911.623 603.87 904.379 616.741 896.403C654.972 874.709 689.198 854.453 725.765 829.671C733.92 825.376 755.715 809.148 762.236 803.075C783.589 783.395 799.282 758.355 807.684 730.558C808.918 726.487 811.33 718.529 811.478 714.364C811.593 715.121 814.897 683.741 815.151 681.562C818.77 650.399 816.964 617.513 820.065 586.591C819.927 578.009 820.023 564.903 819.167 556.724C819.82 553.729 819.569 532.536 819.603 528.161C818.908 523.64 818.927 517.628 818.748 512.929C818.421 504.224 818.022 495.521 817.55 486.822C816.874 476.23 816.13 465.642 815.32 455.06C814.812 448.704 813.95 442.3 813.902 435.95Z"/><path fill="#F08F02" d="M857.542 705.842C860.638 714.695 857.893 724.723 858.67 734.739C858.167 744.388 855.071 762.699 852.453 772.222C851.072 781.428 846.74 791.879 843.503 800.613C829.945 837.187 804.166 868.135 772.721 890.904C706.972 938.513 635.782 979.199 562.765 1014.57C555.918 1017.89 547.103 1019.95 540.799 1024L368.521 1024C363.21 1020.73 352.22 1015.94 346.32 1013.12C335.164 1007.71 324.08 1002.16 313.071 996.469C267.043 972.872 222.345 946.766 179.179 918.269C158.986 905.006 135.626 889.908 118.283 873.209C76.9475 834.158 53.1688 780.045 52.3597 723.186C52.5748 719.388 54.0112 719.164 54.7244 715.34C62.8281 759.722 82.883 800.847 115.657 832.411C124.897 841.309 139.125 851.767 149.887 859.235C203.982 896.11 260.265 929.669 318.425 959.727C328.62 965.113 338.958 970.227 349.426 975.062C352.205 976.363 359.794 980.026 362.573 980.732C377.277 988.583 393.875 994.534 410.041 998.284C485.442 1015.78 535.977 989.352 600.518 955.487C635.399 937.319 669.579 917.836 702.985 897.082C716.945 888.415 730.757 879.514 744.416 870.382C760.421 859.778 778.754 847.262 792.847 834.291C823.903 805.71 844.042 768.241 853.706 727.452C853.806 724.725 856.991 710.848 857.542 705.842Z"/><path fill="#C77906" d="M857.542 705.842C860.638 714.695 857.893 724.723 858.67 734.739C858.167 744.388 855.071 762.699 852.453 772.222C852.147 763.147 856.214 750.261 856.423 740.385C856.532 735.221 855.588 725.016 856.45 721.194L856.099 720.815C855.079 721.682 854.979 724.874 854.493 726.978L853.706 727.452C853.806 724.725 856.991 710.848 857.542 705.842Z"/><path fill="#FCE389" d="M379.599 843.691C426.967 856.779 483.746 856.052 531.222 843.83C534.572 856.117 538.885 868.308 542.155 880.644C542.653 882.522 543.257 884.629 544.004 886.417L543.924 886.979C547.622 901.505 550.939 914.561 554.343 929.188C548.996 929.84 543.46 934.301 538.455 936.347C526.881 941.08 515.707 947.113 503.856 951.089C469.161 962.938 438.184 961.587 403.663 949.621C398.847 947.952 384.248 940.691 380.513 940.267C374.592 938.095 362.313 932.047 356.37 929.279C358.588 917.011 363.033 899.231 366.56 887.405L366.47 887.088L379.599 843.691Z"/><path fill="#FDC525" d="M379.599 843.691C426.967 856.779 483.746 856.052 531.222 843.83C534.572 856.117 538.885 868.308 542.155 880.644C542.653 882.522 543.257 884.629 544.004 886.417L543.924 886.979C542.014 887.339 536.651 890.727 534.506 891.694C489.532 911.973 443.939 914.056 397.104 899.78C390.703 897.831 384.432 895.48 378.328 892.741C374.806 891.145 370.118 888.441 366.56 887.405L366.47 887.088L379.599 843.691Z"/><path fill="#FDC525" d="M819.603 528.161C832.766 547.267 847.074 545.698 861.162 528.561C862.565 536.852 863.493 576.257 861.476 583.587C849.085 563.926 830.074 567.15 820.065 586.591C819.927 578.009 820.023 564.903 819.167 556.724C819.82 553.729 819.569 532.536 819.603 528.161Z"/><path fill="#B4849F" d="M860.554 656.708C862.203 648.684 860.341 628.01 862.978 621.804C862.817 639.957 862.429 658.107 861.812 676.25C861.25 697.624 861.228 713.523 858.67 734.739C857.893 724.723 860.638 714.695 857.542 705.842C858.183 689.842 859.897 673.34 860.554 656.708Z"/><path fill="#FCE389" d="M860.554 656.708C859.725 652.246 860.744 631.454 860.832 625.749L861.411 600.396C861.506 596.324 860.47 587.228 863.345 584.843C863.39 597.164 863.268 609.486 862.978 621.804C860.341 628.01 862.203 648.684 860.554 656.708Z"/><path fill="#FCE389" d="M416.657 658.392C418.764 650.579 423.5 647.133 431.127 644.883C448.316 639.812 469.463 639.746 485.982 647.24C491.388 649.692 492.432 652.735 494.052 657.899C508.099 666.987 512.776 674.102 524.138 685.508C552.184 713.664 592.246 704.933 625.494 693.37C652.263 684.06 680.261 678.379 708.304 685.18C714.36 686.599 725.122 688.347 730.797 690.289C734.864 696.607 744.161 707.628 742.512 715.403C739.892 727.748 705.857 751.335 695.145 760.806C689.773 764.634 684.583 768.735 679.253 772.58C637.977 802.354 592.162 827.226 542.851 840.623C538.976 841.676 535.099 842.764 531.222 843.83C483.746 856.052 426.967 856.779 379.599 843.691C375.719 843.105 368.201 840.744 364.348 839.679C348.811 835.384 334.419 829.862 319.558 823.687C319.404 823.632 319.25 823.577 319.096 823.522C270.954 802.485 226.148 771.575 186.821 737.054C172.537 724.514 160.54 717.3 173.816 699.115C176.342 695.656 177.019 691.567 181.532 689.776C193.552 687.923 205.055 684.714 217.936 682.784C275.647 674.137 337.164 733.781 387.447 684.722C398.566 673.874 402.315 666.722 416.121 657.781L416.657 658.392Z"/><path fill="#B16C1B" d="M416.657 658.392C418.764 650.579 423.5 647.133 431.127 644.883C448.316 639.812 469.463 639.746 485.982 647.24C491.388 649.692 492.432 652.735 494.052 657.899C492.835 662.094 491.299 665.719 488.644 669.268C482.407 677.604 462.946 695.884 451.487 691.881C439.292 687.621 419.556 671.696 416.657 658.392Z"/><path fill="#934610" d="M421.613 790.328C408.435 766.308 416.781 726.198 441.677 712.617C461.44 701.837 479.219 715.913 488.161 733.425C495.908 748.816 497.361 766.618 492.212 783.061C491.47 785.366 490.344 788.066 489.363 790.309C488.376 792.619 486.709 794.924 485.236 796.948C473.537 813.016 450.689 817.588 434.498 805.408C428.608 800.978 425.462 796.497 421.613 790.328Z"/><path fill="#F26756" d="M421.613 790.328C438.037 766.733 473.034 766.367 489.363 790.309C488.376 792.619 486.709 794.924 485.236 796.948C473.537 813.016 450.689 817.588 434.498 805.408C428.608 800.978 425.462 796.497 421.613 790.328Z"/><path fill="#FEFEFE" d="M224.981 695.72C229.556 698.822 230.936 712.458 236.295 717.82C241.596 723.123 254.047 724.228 256.821 728.812C255.769 731.287 242.807 734.446 239.731 736.732C231.925 742.533 230.185 753.324 225.901 761.666C222.824 758.765 220.197 744.822 215.428 739.875C209.351 733.572 199.07 733.522 194.45 728.718C195.476 726.081 209.255 722.554 212.019 720.26C219.093 714.389 221.166 703.99 224.981 695.72Z"/><path fill="#FDC525" d="M414.749 806.391C432.636 824.143 453.306 832.127 477.507 820.722C484.943 817.218 490.33 811.869 496.013 806.109C495.519 812.035 495.593 813.802 492.957 819.082C480.602 843.4 442.792 846.752 424.445 827.799C419.19 822.371 414.743 814.044 414.749 806.391Z"/><defs><linearGradient id="gradient_4" gradientUnits="userSpaceOnUse" x1="813.12067" y1="463.62054" x2="722.94611" y2="451.77014"><stop offset="0" stop-color="#DA951F"/><stop offset="1" stop-color="#FCDD7A"/></linearGradient></defs><path fill="url(#gradient_4)" d="M677.516 227.056C686.076 233.244 695.122 238.434 704.093 244.041C716.511 251.866 728.843 259.826 741.087 267.92C755.143 277.135 771.917 288.22 784.276 299.56C789.59 303.839 793.233 307.368 797.882 312.196C826.204 338.952 847.534 379.785 854.705 418.042C854.05 419.99 854.229 422.337 853.24 423.731C843.331 414.588 831.615 409.117 820.312 421.483C816.544 425.605 814.999 430.543 813.902 435.95C813.95 442.3 814.812 448.704 815.32 455.06C816.13 465.642 816.874 476.23 817.55 486.822C818.022 495.521 818.421 504.224 818.748 512.929C818.927 517.628 818.908 523.64 819.603 528.161C819.569 532.536 819.82 553.729 819.167 556.724C814.648 546.251 809.919 536.413 803.763 526.768C802.256 524.406 800.222 522.527 798.475 520.363C792.462 516.879 786.508 514.465 779.419 516.519C767.863 519.867 764.725 533.432 759.972 542.879C754.223 554.305 746.436 564.236 735.997 571.661C729.924 576.021 721.81 580.271 716.738 585.504C713.707 579.399 710.769 573.248 707.925 567.054C729.397 527.028 740.978 472.557 743.084 427.173C742.949 427.099 742.34 426.775 742.25 426.692C738.074 422.86 735.159 419.495 730.79 415.725C726.353 411.895 720.68 408.051 716.118 404.24C715.973 403.358 715.849 402.611 715.748 401.999C716.359 391.008 716.927 378.372 716.61 367.371C716.35 358.361 715.496 349.998 715.42 340.742C714.754 343.05 712.992 347.021 710.692 347.888C708.127 345.729 701.805 329.326 700.415 325.473C695.302 313.549 686.83 312.088 675.542 307.045C673.205 306.807 666.976 305.179 666.299 302.661C667.698 298.771 685.55 292.69 690.608 290.044L691.098 289.783C693.557 288.611 694.562 287.837 696.314 285.826C690.872 288.831 683.997 282.985 678.913 280.035C668.716 274.142 658.69 267.959 648.847 261.494C656.759 253.602 664.235 246.369 670.351 236.951C672.15 234.181 675.217 229.186 677.516 227.056Z"/><path fill="#FDC525" d="M677.516 227.056C686.076 233.244 695.122 238.434 704.093 244.041C716.511 251.866 728.843 259.826 741.087 267.92C755.143 277.135 771.917 288.22 784.276 299.56C789.59 303.839 793.233 307.368 797.882 312.196C826.204 338.952 847.534 379.785 854.705 418.042C854.05 419.99 854.229 422.337 853.24 423.731C843.331 414.588 831.615 409.117 820.312 421.483C816.544 425.605 814.999 430.543 813.902 435.95C813.263 434.895 810.934 423.194 810.36 420.892C800.614 383.711 784.067 356.307 754.245 331.746C749.933 328.194 743.916 322.202 738.853 320.033C735.673 317.616 733.843 316.503 730.366 314.572C721.984 319.478 718.833 331.601 715.42 340.742C714.754 343.05 712.992 347.021 710.692 347.888C708.127 345.729 701.805 329.326 700.415 325.473C695.302 313.549 686.83 312.088 675.542 307.045C673.205 306.807 666.976 305.179 666.299 302.661C667.698 298.771 685.55 292.69 690.608 290.044L691.098 289.783C693.557 288.611 694.562 287.837 696.314 285.826C690.872 288.831 683.997 282.985 678.913 280.035C668.716 274.142 658.69 267.959 648.847 261.494C656.759 253.602 664.235 246.369 670.351 236.951C672.15 234.181 675.217 229.186 677.516 227.056Z"/><path fill="#FEFEFE" d="M710.618 254.799C717.585 265.246 718.454 278.452 727.521 287.369C732.01 291.784 755.083 297.976 755.375 302.699C751.624 305.706 736.431 311.542 730.366 314.572C721.984 319.478 718.833 331.601 715.42 340.742C714.754 343.05 712.992 347.021 710.692 347.888C708.127 345.729 701.805 329.326 700.415 325.473C695.302 313.549 686.83 312.088 675.542 307.045C673.205 306.807 666.976 305.179 666.299 302.661C667.698 298.771 685.55 292.69 690.608 290.044L691.098 289.783C693.557 288.611 694.562 287.837 696.314 285.826C703.644 274.934 705.023 264.893 710.618 254.799Z"/><path fill="#C77906" d="M715.42 340.742C718.833 331.601 721.984 319.478 730.366 314.572C733.843 316.503 735.673 317.616 738.853 320.033C745.014 345.593 745.626 401.657 743.084 427.173C742.949 427.099 742.34 426.775 742.25 426.692C738.074 422.86 735.159 419.495 730.79 415.725C726.353 411.895 720.68 408.051 716.118 404.24C715.973 403.358 715.849 402.611 715.748 401.999C716.359 391.008 716.927 378.372 716.61 367.371C716.35 358.361 715.496 349.998 715.42 340.742Z"/><path fill="#ED9C03" d="M798.475 520.363L799.465 520.325C801.002 521.703 802.022 522.7 803.425 524.214L803.867 523.931C804.448 520.051 805.263 518.066 806.619 514.335L805.223 514.033C804.662 512.666 804.708 506.762 804.615 504.737C803.433 503.662 803.381 503.705 802.613 502.221C802.512 498.261 804.82 493.624 804.705 489.593C804.158 470.436 803.923 451.019 806.623 432.003C807.116 428.533 807.287 424.11 809.118 421.137L810.36 420.892C810.934 423.194 813.263 434.895 813.902 435.95C813.95 442.3 814.812 448.704 815.32 455.06C816.13 465.642 816.874 476.23 817.55 486.822C818.022 495.521 818.421 504.224 818.748 512.929C818.927 517.628 818.908 523.64 819.603 528.161C819.569 532.536 819.82 553.729 819.167 556.724C814.648 546.251 809.919 536.413 803.763 526.768C802.256 524.406 800.222 522.527 798.475 520.363Z"/><path fill="#FDC525" d="M171.839 319.866C171.851 319.807 171.85 319.744 171.876 319.69C173.505 316.241 207.786 295.234 213.388 291.684C219.177 294.733 223.939 298.296 229.447 301.677C247.617 314.432 272.636 334.04 289.72 348.721C279.855 353.051 270.144 359.192 259.281 363.98C275.964 378.997 309.263 409.561 317.294 429.651L313.932 432.206C293.555 447.925 272.666 461.58 255.865 482.142C249.01 490.054 242.411 498.183 236.076 506.517C234.191 509.035 227.073 520.025 224.996 520.692C224.36 520.315 223.818 519.97 223.251 519.492C208.79 507.283 200.117 456.23 197.802 437.293C196.449 426.229 195.931 415.003 194.967 403.895C185.381 410.418 175.426 419.433 167.536 427.923C167.512 417.879 166.068 405.289 166.105 395.17C166.178 375.558 167.114 338.372 171.839 319.866Z"/><path fill="#C77906" d="M171.839 319.866C171.851 319.807 171.85 319.744 171.876 319.69C173.505 316.241 207.786 295.234 213.388 291.684C219.177 294.733 223.939 298.296 229.447 301.677C247.617 314.432 272.636 334.04 289.72 348.721C279.855 353.051 270.144 359.192 259.281 363.98C251.685 355.975 223.062 332.422 213.778 327.265C211.709 326.115 209.424 325.246 207.031 325.222C204.087 325.192 200.895 326.265 198.845 328.44C191.975 335.727 194.304 391.598 194.967 403.895C185.381 410.418 175.426 419.433 167.536 427.923C167.512 417.879 166.068 405.289 166.105 395.17C166.178 375.558 167.114 338.372 171.839 319.866Z"/><path fill="#FCE389" d="M255.66 437.928C251.96 429.725 242.537 416.606 242.934 408.489C243.785 391.106 282.908 412.083 289.708 415.567C297.373 419.492 304.056 428.032 311.711 431.506C312.281 431.765 312.595 431.417 313.932 432.206C293.555 447.925 272.666 461.58 255.865 482.142C249.69 478.873 240.747 467.671 236.293 462.068C225.863 448.945 246.493 443.862 255.025 438.344L255.66 437.928Z"/><path fill="#FCE389" d="M716.738 585.504C721.81 580.271 729.924 576.021 735.997 571.661C746.436 564.236 754.223 554.305 759.972 542.879C764.725 533.432 767.863 519.867 779.419 516.519C786.508 514.465 792.462 516.879 798.475 520.363C800.222 522.527 802.256 524.406 803.763 526.768C809.919 536.413 814.648 546.251 819.167 556.724C820.023 564.903 819.927 578.009 820.065 586.591C816.964 617.513 818.77 650.399 815.151 681.562C814.897 683.741 811.593 715.121 811.478 714.364C788.566 736.939 789.185 694.546 779.761 685.273C772.196 677.829 754.814 693.229 745.191 692.408C736.78 691.691 734.347 688.817 728.614 683.001C738.906 679.497 758.081 671.349 752.585 656.924C748.303 645.686 741.743 634.341 736.035 623.73C729.3 611.143 722.866 598.397 716.738 585.504Z"/><path fill="#FDC525" d="M700.415 325.473C701.805 329.326 708.127 345.729 710.692 347.888C712.992 347.021 714.754 343.05 715.42 340.742C715.496 349.998 716.35 358.361 716.61 367.371C716.927 378.372 716.359 391.008 715.748 401.999C714.995 427.706 707.162 501.34 688.191 518.689C687.11 519.678 685.92 520.465 684.669 521.219C677.593 509.458 663.912 492.307 654.857 481.635C641.225 468.023 629.035 455.703 613.385 444.111C607.77 439.952 602.201 436.497 596.535 432.461L592.337 429.304C606.46 405.476 630.997 382.835 651.316 364.159C661.092 355.521 690.288 329.876 700.415 325.473Z"/><path fill="#FCE389" d="M596.535 432.461L597.137 432.248C604.03 429.754 613.918 420.063 620.343 416.119C627.999 411.42 656.52 398.458 664.179 402.288C665.673 403.019 666.783 404.353 667.231 405.955C669.478 413.805 659.066 430.554 654.925 437.311C660.811 442.741 675.942 446.132 677.078 453.951C678.079 460.846 660.787 478.938 654.857 481.635C641.225 468.023 629.035 455.703 613.385 444.111C607.77 439.952 602.201 436.497 596.535 432.461Z"/><defs><linearGradient id="gradient_5" gradientUnits="userSpaceOnUse" x1="582.55835" y1="283.37491" x2="578.14233" y2="411.21307"><stop offset="0" stop-color="#F9D86B"/><stop offset="1" stop-color="#FFFCD8"/></linearGradient></defs><path fill="url(#gradient_5)" d="M648.847 261.494C658.69 267.959 668.716 274.142 678.913 280.035C683.997 282.985 690.872 288.831 696.314 285.826C694.562 287.837 693.557 288.611 691.098 289.783L690.608 290.044C685.55 292.69 667.698 298.771 666.299 302.661C666.976 305.179 673.205 306.807 675.542 307.045C686.83 312.088 695.302 313.549 700.415 325.473C690.288 329.876 661.092 355.521 651.316 364.159C642.234 359.147 630.393 353.345 620.98 348.83C597.65 368.225 576.117 389.686 556.643 412.951C556.713 406.166 550.014 392.715 545.276 387.495C530.645 371.374 492.145 364.341 471.398 363.178L471.268 355.872C471.317 355.178 471.281 353.143 472.029 353.023C475.376 352.488 479.578 351.821 482.827 351.216C488.24 350.203 493.612 348.977 498.929 347.541C519.444 341.787 538.57 329.954 554.365 315.842L554.529 315.565C556.172 314.745 557.284 316.076 559.133 316.704C578.001 323.11 596.011 315.32 593.911 293.22C599.559 290.974 605.809 289.325 611.646 286.81C626.734 280.307 637.001 272.466 648.847 261.494Z"/><path fill="#FDDF68" d="M648.847 261.494C658.69 267.959 668.716 274.142 678.913 280.035C683.997 282.985 690.872 288.831 696.314 285.826C694.562 287.837 693.557 288.611 691.098 289.783C690.847 288.815 690.749 287.924 689.681 287.703C677.337 285.154 670.433 291.226 661.388 297.868C657.533 300.698 646.115 301.393 641.518 303.834C637.24 304.857 631.161 310.791 627.486 311.835C619.307 314.158 610.624 318.438 602.384 320.18C590.748 322.64 575.044 325.596 563.387 323.057C561.683 322.686 554.576 318.971 553.858 317.597L554.584 316.335L554.365 315.842L554.529 315.565C556.172 314.745 557.284 316.076 559.133 316.704C578.001 323.11 596.011 315.32 593.911 293.22C599.559 290.974 605.809 289.325 611.646 286.81C626.734 280.307 637.001 272.466 648.847 261.494Z"/><path fill="#C77906" d="M620.98 348.83L650.178 325.101C656.852 319.777 668.117 310.95 675.542 307.045C686.83 312.088 695.302 313.549 700.415 325.473C690.288 329.876 661.092 355.521 651.316 364.159C642.234 359.147 630.393 353.345 620.98 348.83Z"/><path fill="#FDC525" d="M471.084 363.022C471.1 360.693 471.206 358.213 471.268 355.872L471.398 363.178C492.145 364.341 530.645 371.374 545.276 387.495C550.014 392.715 556.713 406.166 556.643 412.951C551.766 410.258 545.174 406.357 539.894 404.63C528.75 400.986 516.724 399.206 505.246 396.888C496.779 396.38 487.751 394.84 479.365 394.376C457.216 393.15 427.791 393.367 405.945 397.063L405.363 397.212C392.93 400.341 379.634 401.277 367.193 405.584C363.362 406.91 358.648 410.587 356.146 411.289C358.03 403.016 360.65 395.436 365.806 388.604C378.535 371.736 419.571 365.344 439.623 363.002C441.581 363.122 444.245 362.953 446.244 362.868C454.578 362.511 462.746 362.716 471.084 363.022Z"/><defs><linearGradient id="gradient_6" gradientUnits="userSpaceOnUse" x1="456.37308" y1="399.79138" x2="454.43872" y2="378.09793"><stop offset="0" stop-color="#FBF2C3"/><stop offset="1" stop-color="#FEFDF2"/></linearGradient></defs><path fill="url(#gradient_6)" d="M405.945 397.063C403.895 395.281 401.893 393.295 401.694 390.418C401.579 388.772 402.378 387.338 403.503 386.191C411.752 377.773 450.011 378.709 461.269 378.967C470.762 379.184 501.981 378.688 508.033 385.438C509.316 386.869 509.775 388.644 509.522 390.531C509.134 393.423 507.453 395.163 505.246 396.888C496.779 396.38 487.751 394.84 479.365 394.376C457.216 393.15 427.791 393.367 405.945 397.063Z"/><path fill="#ED9C03" d="M599.862 847.304C604.601 859.657 609.039 872.124 613.171 884.693C613.944 887.024 616.563 894.5 616.741 896.403C603.87 904.379 588.645 911.623 575.255 918.8C571.166 920.992 558.289 928.099 554.343 929.188C550.939 914.561 547.622 901.505 543.924 886.979L544.004 886.417C563.773 877.1 585.459 864.018 599.862 847.304Z"/><path fill="#F08F02" d="M695.145 760.806L695.87 761.291C693.165 763.543 690.085 765.711 687.232 767.853C662.206 786.641 635.485 803.186 607.468 817.135C602.991 819.364 596.392 821.419 592.432 824.38C592.858 827.434 595.944 834.565 597.19 837.802C600.138 845.45 603.036 853.116 605.884 860.801C607.861 866.187 615.688 892.081 617.782 894.453C621.02 893.445 635.591 884.669 639.376 882.475C658.996 871.34 678.301 859.657 697.268 847.441C704.119 843.044 715.294 836.101 721.464 831.21C721.697 829.567 720.192 823.64 719.809 821.669C716.218 803.227 709.308 787.155 698.265 771.916C695.677 768.345 695.015 768.636 694.506 763.604C700.496 769.327 707.633 786.557 712.157 793.181C717.792 801.431 720.217 825.178 723.134 829.926C725.508 829.997 722.902 828.728 725.765 829.671C689.198 854.453 654.972 874.709 616.741 896.403C616.563 894.5 613.944 887.024 613.171 884.693C609.039 872.124 604.601 859.657 599.862 847.304C585.459 864.018 563.773 877.1 544.004 886.417C543.257 884.629 542.653 882.522 542.155 880.644C538.885 868.308 534.572 856.117 531.222 843.83C535.099 842.764 538.976 841.676 542.851 840.623C592.162 827.226 637.977 802.354 679.253 772.58C684.583 768.735 689.773 764.634 695.145 760.806Z"/><path fill="#FEFEFE" d="M518.829 565.439C516.023 567.026 514.144 573.206 512.813 576.516C511.584 567.364 518.713 555.47 523.905 548.202C567.725 486.863 665.164 512.548 674.21 586.92C674.801 591.786 675.219 596.765 675.47 601.628C673.78 601.565 668.295 601.457 666.951 601.16C668.493 618.308 666.72 630.569 659.935 646.466C656.397 654.755 649.881 663.723 641.014 666.565C625.91 671.406 608.307 673.34 592.676 676.591C582.391 678.73 568.762 683.792 558.83 684.364C552.827 684.745 546.822 683.643 541.346 681.154C528.602 675.338 518.316 663.234 513.881 649.933C507.459 630.677 505.531 607.211 510.285 587.344C512.04 580.008 515.658 572.171 518.829 565.439Z"/><path fill="#F08F02" d="M518.829 565.439C516.023 567.026 514.144 573.206 512.813 576.516C511.584 567.364 518.713 555.47 523.905 548.202C567.725 486.863 665.164 512.548 674.21 586.92C674.801 591.786 675.219 596.765 675.47 601.628C673.78 601.565 668.295 601.457 666.951 601.16C663.407 578.383 651.865 558.485 633.141 544.89C615.284 532.008 592.978 526.89 571.291 530.698C548.099 534.564 532.137 546.823 518.829 565.439Z"/><path fill="#B16C1B" d="M594.049 657.852C580.14 664.503 562.691 664.76 548.419 659.065C533.942 653.396 522.387 642.092 516.4 627.744C499.414 587.478 534.445 542.311 577.562 548.986C584.81 550.108 589.499 551.917 596.168 554.671C591.31 559.44 576.91 574.364 575.413 581.905C574.268 587.671 597.233 616.808 602.196 616.36C607.66 615.866 620.567 598.65 625.235 592.978C628.163 610.383 627.48 620.178 618.629 635.96C613.247 645.086 604.206 654.302 594.049 657.852Z"/><defs><linearGradient id="gradient_7" gradientUnits="userSpaceOnUse" x1="596.07452" y1="657.95941" x2="606.54016" y2="625.72723"><stop offset="0" stop-color="#E59118"/><stop offset="1" stop-color="#C87B29"/></linearGradient></defs><path fill="url(#gradient_7)" d="M594.049 657.852C591.661 656.685 589.416 657.711 587.914 655.948C581.527 648.45 589.316 638.317 595.415 633.428C599.682 629.878 605.028 625.751 610.889 626.061C615.667 626.315 615.744 633.317 618.629 635.96C613.247 645.086 604.206 654.302 594.049 657.852Z"/><path fill="#FEFEFE" d="M551.797 591.704C554.708 593.266 556.021 604.526 559.003 606.932C563.3 610.4 569.478 611.889 574.572 614.376C557.145 624.181 561.115 615.54 552.516 636.93C550.36 636.464 547.622 623.301 544.609 621.38C539.962 618.418 534.89 616.714 529.924 614.244C547.319 607.363 545.096 609.07 551.797 591.704Z"/><path fill="#FEFEFE" d="M322.068 529.714C330.922 529.194 339.801 530.163 348.335 532.582C366.778 537.977 383.794 550.699 393.126 567.738C405.749 590.784 405.989 620.29 398.735 645.129C394.385 660.019 385.636 673.061 371.756 680.601C358.473 687.817 344.324 683.43 330.66 679.27C320.028 676.752 309.319 674.57 298.549 672.73C288.221 670.885 268.588 668.355 260.877 661.406C250.225 651.807 244.466 631.253 243.728 617.333C242.392 595.035 249.985 573.123 264.83 556.432C280.186 539.461 299.501 530.903 322.068 529.714Z"/><defs><linearGradient id="gradient_8" gradientUnits="userSpaceOnUse" x1="337.74652" y1="548.95605" x2="344.38455" y2="661.77155"><stop offset="0" stop-color="#9A610C"/><stop offset="1" stop-color="#D78437"/></linearGradient></defs><path fill="url(#gradient_8)" d="M335.231 548.662C346.441 547.484 356.5 549.111 366.599 554.093C380.599 560.83 391.23 573.004 396.021 587.783C412.576 637.463 360.774 680.148 313.254 655.948C294.286 646.18 282.102 623.266 284.097 602.174C284.397 598.997 284.784 595.917 285.232 592.759C292.144 601.389 300.144 612.578 309.807 617.225C310.564 616.702 311.293 616.139 311.991 615.538C317.065 611.117 335.326 589.703 335.079 582.49C334.798 574.285 321.083 561.109 315.293 554.935C322.479 551.384 327.314 549.747 335.231 548.662Z"/><path fill="#FEFEFE" d="M359.092 591.351C361.964 594.551 362.986 603.524 366.309 607.076C369.5 610.486 377.863 611.108 380.054 614.397C378.506 617.011 374.366 617.455 371.185 618.75C363.998 621.676 362.562 629.897 359.563 636.935C357.501 636.095 354.824 624.129 352.477 622.049C348.24 618.294 342.244 617.198 337.223 614.415C356.747 604.852 350.364 611.054 359.092 591.351Z"/><path fill="#F08F02" d="M364.34 436.328C368.718 437.435 373.123 439.161 377.487 440.366C421.809 452.597 469.886 452.071 515.082 445.276C524.598 443.845 535.639 440.452 545.071 437.836C516.687 492.716 504.328 532.214 501.503 594.375C501.286 605.099 500.745 613.538 501.015 624.509C488.565 608.649 470.355 593.402 448.677 597.33C434 599.99 418.274 612.583 410.003 624.652C409.53 555.419 400.447 497.3 364.34 436.328Z"/><path fill="#FDC525" d="M344.815 451.7C353.784 450.545 368.663 452.862 374.352 460.696C379.412 467.664 377.731 474.168 370.984 478.994C366.601 479.228 361.278 478.571 356.722 478.613C345.272 478.717 337.176 480.999 326.876 485.237C318.655 488.982 312.269 493.58 303.864 487.733C298.12 483.736 295.686 475.013 300.603 469.717C310.528 459.028 330.545 453.082 344.815 451.7Z"/><path fill="#FDC525" d="M561.264 451.715C576.461 451.9 588.981 456.195 602.599 463.342C614.521 469.6 617.566 483.951 603.056 489.484C597.607 491.562 593.08 489.334 588.19 486.852C570.036 478.36 560.655 478.215 541.469 479.181C535.772 475.813 535.217 475.154 533.27 468.793C537.524 454.354 548.062 452.385 561.264 451.715Z"/><path fill="#C6A5DD" d="M853.186 949.349C855.054 951.44 855.843 955.483 857.208 957.977C861.529 965.874 869.33 968.51 876.213 972.487C867.323 975.294 862.084 978.186 857.244 986.622C855.797 989.145 855.22 991.223 853.611 993.828L853.358 994.229C851.263 994.467 849.874 986.705 848.059 984.358C843.479 978.436 837.022 975.054 830.609 971.775C838.465 968.437 844.613 964.544 848.973 957.032C850.478 954.439 851.232 952.379 852.903 949.782L853.186 949.349Z"/></svg>