<svg xmlns="http://www.w3.org/2000/svg" width="515" height="606" viewBox="605 75 515 640"><path fill="#FA8411" transform="scale(1.78286 1.78286)" d="M533.515 111.582C542.465 99.0419 577.405 53.4865 591.67 51.2561C593.173 51.0211 594.566 51.4175 595.758 52.3531C602.089 57.323 604.262 81.553 605.098 90.0334C606.973 109.034 606.399 128.069 602.053 146.708C600.528 153.249 598.373 159.56 596.62 166.029C603.818 177.84 614.171 187.054 621.266 198.732C622.578 200.892 622.785 204.257 622.144 206.73L614.293 214.119L614.551 217.827C619.652 227.315 614.769 230.67 605.698 233.02L603.01 236.68C592.81 250.563 581.549 261.084 568.424 272.118C564.518 275.402 560.108 278.471 556.307 281.674C560.426 295.536 560.496 321.71 553.085 334.78C549.484 341.131 545.791 344.841 540.568 349.791C540.198 355.037 539.682 360.271 539.02 365.489C529.763 366.89 526.267 367.53 516.933 366.047L516.93 356.978L508.491 356.943L508.501 366.028C500.597 367.121 494.07 366.477 486.261 365.63C485.767 363.873 485.514 361.23 485.275 359.343C485.774 357.275 484.738 352.259 484.386 349.832C480.754 345.776 476.249 342.148 473.366 337.36C470.076 331.899 469.684 324.204 466.059 318.974C465.462 318.113 464.759 318.251 463.833 318.238C462.335 318.953 461.485 320.771 460.593 322.237C454.792 315.078 451.427 313.943 442.946 311.303C443.794 308.945 445.816 306.344 446.975 303.287C453.821 289.231 462.639 268.509 472.499 257.13C458.339 251.861 445.809 245.336 432.253 238.767C426.415 235.804 420.168 233.646 414.357 230.648C403.483 225.039 408.72 220.661 415.084 214.812C410.42 212.604 406.997 210.608 403.433 206.793C402.528 204.383 401.697 202.804 403 200.459C410.047 187.782 421.012 178.45 428.909 165.909C417.26 139.092 417.271 108.182 421.276 79.6503C422.275 72.5378 423.719 55.0173 431.044 51.6984C437.176 48.9202 446.996 59.9416 451.04 63.6544C466.246 78.1762 480.353 94.6209 491.774 112.3C507.383 108.879 518.119 110.745 533.515 111.582Z"/><path fill="#FECDA5" transform="scale(1.78286 1.78286)" d="M403.433 206.793C420.278 203.414 434.289 192.57 452.65 202.01C472.364 212.146 478.775 218.156 499.725 205.924C501.752 203.958 502.435 203.281 504.808 201.81C511.788 201.367 520.745 200.094 525.542 206.135C527.06 206.595 531.44 209.245 533.133 210.219C541.809 215.213 551.265 212.641 559.655 208.479C576.71 199.546 587.087 194.54 606.273 201.765C609.151 202.849 618.978 206.34 622.144 206.73L614.293 214.119L614.551 217.827C619.652 227.315 614.769 230.67 605.698 233.02L603.01 236.68C592.81 250.563 581.549 261.084 568.424 272.118C564.518 275.402 560.108 278.471 556.307 281.674C560.426 295.536 560.496 321.71 553.085 334.78C549.484 341.131 545.791 344.841 540.568 349.791C540.198 355.037 539.682 360.271 539.02 365.489C529.763 366.89 526.267 367.53 516.933 366.047L516.93 356.978L508.491 356.943L508.501 366.028C500.597 367.121 494.07 366.477 486.261 365.63C485.767 363.873 485.514 361.23 485.275 359.343C485.774 357.275 484.738 352.259 484.386 349.832C480.754 345.776 476.249 342.148 473.366 337.36C470.076 331.899 469.684 324.204 466.059 318.974C465.462 318.113 464.759 318.251 463.833 318.238C462.335 318.953 461.485 320.771 460.593 322.237C454.792 315.078 451.427 313.943 442.946 311.303C443.794 308.945 445.816 306.344 446.975 303.287C453.821 289.231 462.639 268.509 472.499 257.13C458.339 251.861 445.809 245.336 432.253 238.767C426.415 235.804 420.168 233.646 414.357 230.648C403.483 225.039 408.72 220.661 415.084 214.812C410.42 212.604 406.997 210.608 403.433 206.793Z"/><path fill="#FA8411" transform="scale(1.78286 1.78286)" d="M585.412 224.355C589.323 230.351 593.882 234.758 601.145 236.321C601.764 236.453 602.386 236.573 603.01 236.68C592.81 250.563 581.549 261.084 568.424 272.118C564.518 275.402 560.108 278.471 556.307 281.674C560.426 295.536 560.496 321.71 553.085 334.78C549.484 341.131 545.791 344.841 540.568 349.791C540.198 355.037 539.682 360.271 539.02 365.489C529.763 366.89 526.267 367.53 516.933 366.047L516.93 356.978L508.491 356.943L508.501 366.028C500.597 367.121 494.07 366.477 486.261 365.63C485.767 363.873 485.514 361.23 485.275 359.343C485.774 357.275 484.738 352.259 484.386 349.832C480.754 345.776 476.249 342.148 473.366 337.36C470.076 331.899 469.684 324.204 466.059 318.974C465.462 318.113 464.759 318.251 463.833 318.238C462.335 318.953 461.485 320.771 460.593 322.237C454.792 315.078 451.427 313.943 442.946 311.303C443.794 308.945 445.816 306.344 446.975 303.287C453.821 289.231 462.639 268.509 472.499 257.13C475.853 256.827 482.733 259.27 486.176 260.117C482.31 278.302 476.458 310.737 486.805 326.863C491.169 333.656 498.08 338.41 505.985 340.056C523.949 343.804 539.83 332.976 543.108 315.179C544.201 309.247 544.581 302.507 544.503 296.479C540.407 296.496 526.964 296.781 523.46 296.049C515.989 296.127 515.425 293.639 514.101 287.041C510.666 269.927 527.961 272.164 539.597 272.849C540.576 272.753 540.552 272.794 541.449 272.261C541.573 269.27 539.995 263.562 539.267 260.402C549.86 258.196 554.769 253.208 562.781 246.468C570.979 239.571 578.312 232.367 585.412 224.355Z"/><path fill="#DD6D01" transform="scale(1.78286 1.78286)" d="M523.46 296.049C515.989 296.127 515.425 293.639 514.101 287.041C510.666 269.927 527.961 272.164 539.597 272.849C543.531 273.681 550.75 273.053 552.98 277.049C555.505 281.575 555.579 291.67 550.139 294.315C542.41 298.074 531.666 295.165 523.46 296.049Z"/><path fill="#FECDA5" transform="scale(1.78286 1.78286)" d="M531.124 277.891C533.748 278.126 535.211 278.053 536.553 280.433C536.443 283.583 532.612 285.634 533.998 288.072C535.362 288.443 535.619 288.443 536.742 289.249C535.965 290.368 535.246 290.189 533.57 290.593C531.677 290.519 529.917 290.748 529.217 288.792C530.325 285.984 534.777 284.275 534.351 281.381C532.752 280.381 531.824 281.386 529.197 281.323C529.245 279.859 530.082 279.282 531.124 277.891Z"/><path fill="#FECDA5" transform="scale(1.78286 1.78286)" d="M543.453 277.914C544.02 278.049 545.798 278.491 546.124 278.765C549.115 281.277 549.236 290.503 544.07 290.621C542.518 290.657 541.371 289.418 540.421 288.454C542.61 287.562 543.841 288.603 545.975 287.522C545.433 285.244 543.729 285.701 543.411 283.716L545.246 281.986L545.232 281.41C543.811 281.148 542.961 281.098 541.71 280.355C541.9 279.024 542.312 279.021 543.453 277.914Z"/><path fill="#FECDA5" transform="scale(1.78286 1.78286)" d="M523.032 277.932L523.603 278.399C525.077 281.387 524.776 288.159 522.473 290.737C522.223 286.114 521.616 284.651 520.71 280.194C520.57 279.507 522.283 278.492 523.032 277.932Z"/><path fill="#974804" transform="scale(1.78286 1.78286)" d="M585.412 224.355C592.876 215.742 604.275 192.96 614.293 214.119L614.551 217.827C619.652 227.315 614.769 230.67 605.698 233.02L603.01 236.68C602.386 236.573 601.764 236.453 601.145 236.321C593.882 234.758 589.323 230.351 585.412 224.355Z"/><path fill="#FECDA5" transform="scale(1.78286 1.78286)" d="M614.551 217.827C619.652 227.315 614.769 230.67 605.698 233.02C608.811 228.285 612.45 223.072 614.551 217.827Z"/><path fill="#974804" transform="scale(1.78286 1.78286)" d="M504.808 201.81C511.788 201.367 520.745 200.094 525.542 206.135C522.259 212.595 518.535 215.37 512.188 218.238C505.575 214.279 503.794 212.413 499.725 205.924C501.752 203.958 502.435 203.281 504.808 201.81Z"/><path fill="#974804" transform="scale(1.78286 1.78286)" d="M494.261 239.551C491.373 235.179 487.894 229.369 488.437 224.023C488.819 220.262 494.097 219.794 496.325 220.865C507.626 226.298 515.712 227.147 528.066 225.296C531.604 224.766 536.424 226.273 535.131 231.189C533.841 235.909 529.351 240.882 525.61 244.035C514.256 250.678 503.395 248.654 494.261 239.551Z"/><path fill="#F07C7A" transform="scale(1.78286 1.78286)" d="M494.261 239.551C505.62 232.349 516.51 234.852 525.61 244.035C514.256 250.678 503.395 248.654 494.261 239.551Z"/><path fill="white" transform="scale(1.78286 1.78286)" d="M527.129 175.053C528.348 168.922 530.826 163.754 536.21 160.223C540.512 157.411 545.767 156.453 550.784 157.566C555.601 158.605 559.778 161.577 562.339 165.787C567.062 173.393 566.186 183.165 565.9 191.806C562.326 192.253 556.087 193.275 552.763 193.464C548.522 195.222 544.253 196.909 539.956 198.524C531.901 204.754 528.141 200.915 527.477 192.155C526.487 187.658 526.9 179.829 527.129 175.053Z"/><path fill="#974804" transform="scale(1.78286 1.78286)" d="M535.883 168.339C545.294 165.991 552.145 167.732 555.093 178.544C556.537 183.839 555.243 188.649 552.763 193.464C548.522 195.222 544.253 196.909 539.956 198.524C531.901 204.754 528.141 200.915 527.477 192.155C526.487 187.658 526.9 179.829 527.129 175.053C528.156 176.556 527.633 176.234 529.055 176.636C537.989 185.815 544.137 175.303 537.483 169.642C536.958 169.198 536.424 168.764 535.883 168.339Z"/><path fill="white" transform="scale(1.78286 1.78286)" d="M527.477 192.155C527.771 190.184 527.275 188.511 527.826 187.092L529.05 188.692C532.025 194.413 534.312 195.897 539.956 198.524C531.901 204.754 528.141 200.915 527.477 192.155Z"/><path fill="#FDFBEC" transform="scale(1.78286 1.78286)" d="M527.477 192.155C526.487 187.658 526.9 179.829 527.129 175.053C528.156 176.556 527.633 176.234 529.055 176.636C528.174 181.535 528.195 183.844 529.05 188.692L527.826 187.092C527.275 188.511 527.771 190.184 527.477 192.155Z"/><path fill="#FDFBEC" transform="scale(1.78286 1.78286)" d="M547.701 186.769C549.226 186.583 550.633 187.617 550.91 189.128C551.187 190.64 550.239 192.106 548.747 192.473C547.699 192.731 546.595 192.386 545.879 191.578C545.164 190.771 544.955 189.633 545.337 188.623C545.72 187.614 546.63 186.9 547.701 186.769Z"/><path fill="white" transform="scale(1.78286 1.78286)" d="M459.511 191.857C459.075 178.926 458.494 159.932 475.581 157.215C480.604 156.458 485.72 157.741 489.792 160.778C496 165.385 497.121 170.844 498.081 177.869C499.248 187.358 498.499 194.739 493.548 203.093L485.034 198.298C481.929 196.625 476.516 194.824 473.175 193.742C471.049 193.866 462.528 192.184 459.511 191.857Z"/><path fill="#974804" transform="scale(1.78286 1.78286)" d="M470.16 177.174C474.256 180.792 477.468 182.14 481.573 177.285C482.741 173.073 477.957 171.067 478.351 169.177C479.474 163.795 487.036 167.126 489.095 168.767C494.264 172.888 495.838 174.704 497.022 180.66L498.081 177.869C499.248 187.358 498.499 194.739 493.548 203.093L485.034 198.298C481.929 196.625 476.516 194.824 473.175 193.742C469.051 188.357 469.362 183.46 470.16 177.174Z"/><path fill="#FDFBEC" transform="scale(1.78286 1.78286)" d="M497.022 180.66L498.081 177.869C499.248 187.358 498.499 194.739 493.548 203.093L485.034 198.298C494.845 195.014 496.507 190.228 497.022 180.66Z"/><path fill="#FDFBEC" transform="scale(1.78286 1.78286)" d="M488.143 186.752C489.671 186.405 491.203 187.317 491.626 188.825C492.049 190.334 491.216 191.909 489.73 192.408C488.701 192.753 487.565 192.503 486.775 191.757C485.986 191.012 485.671 189.892 485.958 188.844C486.244 187.797 487.084 186.992 488.143 186.752Z"/><path fill="#FECDA5" transform="scale(1.78286 1.78286)" d="M440.697 80.8696C450.035 81.6714 469.623 108.346 474.826 116.657L466.597 120.818C462.454 119.737 457.452 118.317 453.541 120.588C451.318 123.863 453.579 125.82 455.739 128.499C449.271 134.574 445.119 140.142 440.191 147.435C435.882 130.92 430.801 95.6696 440.697 80.8696Z"/><path fill="#FECDA5" transform="scale(1.78286 1.78286)" d="M581.794 80.8563C593.583 82.2619 589.958 121.997 588.824 130.302C588.084 136.133 586.788 141.879 584.952 147.463C581.102 140.629 576.674 135.96 571.331 130.383C569.486 128.245 572.386 124.644 572.64 121.396C571.016 117.287 562.482 119.92 558.941 120.744L550.243 116.795C559.457 103.616 569.165 90.9716 581.794 80.8563Z"/><path fill="#DD6D01" transform="scale(1.78286 1.78286)" d="M540.116 131.996C546.681 131.964 568.648 135.099 560.335 145.596C555.151 144.297 549.975 139.96 543.513 140.088C541.279 140.132 539.133 138.544 538.276 136.299C538.329 134.383 539.048 133.596 540.116 131.996Z"/><path fill="#DD6D01" transform="scale(1.78286 1.78286)" d="M478.204 132.585C481.835 132.315 484.878 131.506 487.022 135.066C487.346 140.302 475.175 141.777 470.738 143.295C468.195 144.502 463.855 146.538 462.589 142.813C463.524 135.958 472.617 133.802 478.204 132.585Z"/><path fill="#DD6D01" transform="scale(1.78286 1.78286)" d="M377.094 336.09C373.582 333.691 365.511 318.405 359.59 315.057C356.578 312.932 345.562 311.425 344.076 308.067C340.489 299.96 361.208 288.21 365.369 285.971C380.716 277.712 395.051 275.829 411.523 280.783C426.399 286.162 436.014 291.331 446.975 303.287C445.816 306.344 443.794 308.945 442.946 311.303C451.427 313.943 454.792 315.078 460.593 322.237C461.485 320.771 462.335 318.953 463.833 318.238C464.759 318.251 465.462 318.113 466.059 318.974C469.684 324.204 470.076 331.899 473.366 337.36C476.249 342.148 480.754 345.776 484.386 349.832C484.738 352.259 485.774 357.275 485.275 359.343C481.618 363.541 476.514 368.14 471.929 371.249C459.182 379.949 443.473 383.16 428.334 380.161C403.064 375.311 390.511 355.824 377.094 336.09Z"/><path fill="#FECDA5" transform="scale(1.78286 1.78286)" d="M377.094 336.09C373.582 333.691 365.511 318.405 359.59 315.057C356.578 312.932 345.562 311.425 344.076 308.067C340.489 299.96 361.208 288.21 365.369 285.971C380.716 277.712 395.051 275.829 411.523 280.783C411.53 284.042 411.754 284.944 409.628 287.384C406.701 290.741 398.942 290.954 398.595 295.493C398.146 301.355 410.446 309.446 404.798 314.129C399.058 318.888 386.867 311.703 384.808 321.213C384.063 324.654 388.653 331.747 384.7 334.705C382.311 336.493 379.897 336.139 377.094 336.09Z"/><path fill="#974804" transform="scale(1.78286 1.78286)" d="M442.946 311.303C451.427 313.943 454.792 315.078 460.593 322.237C456.985 328.331 453.854 338.997 446.643 341.288C444.02 342.143 441.163 341.901 438.722 340.617C436.663 339.523 435.137 337.641 434.493 335.401C432.415 328.395 439.478 317.482 442.946 311.303Z"/><path fill="#974804" transform="scale(1.78286 1.78286)" d="M486.261 365.63C494.07 366.477 500.597 367.121 508.501 366.028C509.163 382.097 510.94 393.997 487.109 389.713C475.036 387.543 476.244 378.589 487.067 373.248C486.735 370.802 486.514 368.105 486.261 365.63Z"/><path fill="#974804" transform="scale(1.78286 1.78286)" d="M516.933 366.047C526.267 367.53 529.763 366.89 539.02 365.489C538.691 368.343 538.44 370.475 538.424 373.38C562.331 384.964 531.952 394.769 520.739 388.14C514.306 384.337 516.458 372.221 516.933 366.047Z"/><path fill="#FECDA5" transform="scale(1.78286 1.78286)" d="M392.123 261.688C397.684 261.168 414.844 263.446 417.411 268.938C417.225 270.951 417.482 270.163 416.145 271.96C413.421 273.512 403.294 268.81 398.329 268.124C392.601 267.857 388.895 268.892 383.456 270.219C380.776 270.873 373.728 272.87 372.616 269.485C375.174 263.607 386.467 262.304 392.123 261.688Z"/></svg>