<?xml version="1.0" encoding="utf-8" ?><svg xmlns="http://www.w3.org/2000/svg" xmlns:xlink="http://www.w3.org/1999/xlink" width="1008" height="1024" viewBox="0 0 1008 1024"><path fill="#FBCB07" d="M636.532 429.425L637.571 429.925L638.393 429.629C657.094 422.979 683.027 428.489 700.924 435.565C698.106 439.721 680.707 463.649 680.107 466.364C709.312 474.418 722.068 485.967 741.269 508.105L751.639 523.678L751.985 522.865C753.474 519.291 760.506 509.841 763.292 505.02L764.235 507.656L764.781 507.873C766.504 502.588 769.005 496.25 770.185 490.932C770.673 488.732 770.341 489.384 771.398 486.856L771.662 486.238C782.78 498.402 791.068 519.502 796.005 535.015C797.211 538.805 798.774 546.644 800.463 549.489C827.89 542.092 837.278 585.626 826.189 603.425C823.636 607.605 819.458 610.534 814.657 611.508C811.185 612.192 807.513 611.682 804.163 610.629C807.482 617.483 803.762 651.233 801.675 660.001C800.699 664.099 796.355 677.523 796.492 680.627C800.531 682.521 804.72 684.564 808.805 686.316C810.933 687.547 816.221 691.406 818.329 689.575C821.263 687.027 824.499 683.709 827.042 680.729C834.62 672.127 845.548 665.066 856.462 661.417C873.637 655.674 886.19 659.597 892.322 677.263C895.894 684.617 897.108 686.071 893.052 693.614C892.378 696.657 891.386 700.575 891.484 703.628C891.237 707.116 891.005 710.771 891.257 714.274C892.513 731.743 880.95 754.904 869.128 767.082C856.271 779.792 841.067 782.616 823.414 782.557C816.965 782.535 803.474 781.585 797.819 779.113C792.469 777.926 782.309 774.996 777.437 774.4C762.962 772.629 750.269 770.816 735.983 768.114C731.076 770.672 726.46 774.574 721.71 777.523C706.44 787.073 689.104 792.825 671.153 794.296C669.04 794.471 660.681 795.836 659.161 795.063C654.446 795.762 644.072 795.556 638.98 795.532C612.968 795.729 589.354 788.559 567.432 774.696C567.429 779.725 568.253 782.439 568.496 786.768C568.462 790.525 568.09 805.397 568.986 808.125C567.681 820.945 566.565 830.792 559.25 841.868C542.167 867.736 502.271 871.227 477.885 854.249C474.881 852.157 471.531 848.867 468.811 846.306C459.799 841.764 452.341 834.281 444.389 828.241C405.388 798.621 374.189 781.119 366.983 728.042C365.077 706.362 366.276 688.189 371.825 666.937C373.748 659.571 377.032 650.785 378.665 643.687L378.775 643.194C380.708 639.688 382.648 635.416 383.913 631.562C396.954 591.843 410.492 552.127 418.322 510.958C419.746 503.473 420.518 495.885 422.228 488.634L422.38 488.008C426.64 490.074 431.555 490.913 436.074 492.169C452.656 496.778 469.645 497.832 486.4 501.01C483.592 508.537 475.916 540.6 474.82 548.858C479.097 554.412 484.47 558.988 489.996 563.283C493.589 565.793 504.533 573.187 508.281 573.841C509.312 574.327 510.47 574.838 511.471 575.356C513.731 570.516 516.099 554.073 517.971 547.8C528.245 513.377 546.483 481.734 573.752 458.026C576.468 455.665 580.405 454.982 581.922 452.84C589.758 450.438 593.159 448.553 598.194 441.863C598.285 441.869 610.454 437.342 610.93 437.085C622.241 438.983 628.028 437.136 636.532 429.425Z"/><path fill="#FC8215" d="M422.38 488.008C426.64 490.074 431.555 490.913 436.074 492.169C452.656 496.778 469.645 497.832 486.4 501.01C483.592 508.537 475.916 540.6 474.82 548.858C479.097 554.412 484.47 558.988 489.996 563.283C493.589 565.793 504.533 573.187 508.281 573.841C509.312 574.327 510.47 574.838 511.471 575.356C515.684 577.378 516.784 577.483 519.667 581.028C527.351 582.903 534.972 585.023 542.52 587.385C558.09 593.05 576.725 599.696 586.691 613.603C587.559 614.988 588.381 616.466 589.491 617.648C591.425 618.589 590.745 617.912 591.813 619.512L591.788 621.044C591.423 623.991 592.04 631.403 592.212 634.638C592.499 636.622 592.656 637.262 591.384 639.071C590.08 641.242 585.41 648.66 584.667 650.511C585.249 652.595 585.514 652.353 584.469 654.64C577.956 654.993 574.808 657.786 568.732 660.488C563.077 663.006 556.979 664.38 550.791 664.533C548.103 664.644 545.389 664.778 542.701 664.855C530.878 663.75 523.515 664.407 510.844 661.9C514.617 675.226 517.362 683.173 522.867 695.82C524.107 701.309 527.066 705.553 529.488 710.5C549.668 722.08 556.563 734.417 563.35 756.904C563.843 759.292 566.578 773.764 567.432 774.696C567.429 779.725 568.253 782.439 568.496 786.768C568.462 790.525 568.09 805.397 568.986 808.125C567.681 820.945 566.565 830.792 559.25 841.868C542.167 867.736 502.271 871.227 477.885 854.249C474.881 852.157 471.531 848.867 468.811 846.306C459.799 841.764 452.341 834.281 444.389 828.241C405.388 798.621 374.189 781.119 366.983 728.042C365.077 706.362 366.276 688.189 371.825 666.937C373.748 659.571 377.032 650.785 378.665 643.687L378.775 643.194C380.708 639.688 382.648 635.416 383.913 631.562C396.954 591.843 410.492 552.127 418.322 510.958C419.746 503.473 420.518 495.885 422.228 488.634L422.38 488.008Z"/><path fill="#8C470F" d="M508.952 707.376C518.587 707.31 520.239 707.553 529.488 710.5C549.668 722.08 556.563 734.417 563.35 756.904C563.843 759.292 566.578 773.764 567.432 774.696C567.429 779.725 568.253 782.439 568.496 786.768C568.462 790.525 568.09 805.397 568.986 808.125C567.681 820.945 566.565 830.792 559.25 841.868C542.167 867.736 502.271 871.227 477.885 854.249C474.881 852.157 471.531 848.867 468.811 846.306C467.415 841.956 462.695 835.629 460.799 830.127C448.835 795.412 455.821 737.719 487.157 715.07C489.091 713.945 490.878 712.905 492.873 711.875C496.475 710.455 498.59 709.648 502.312 708.707L508.952 707.376Z"/><path fill="#FDA88D" d="M514.365 767.224C554.072 765.911 557.154 829.743 517.91 835.587C475.385 836.403 475.021 770.239 514.365 767.224Z"/><path fill="#FDA88D" d="M511.503 730.697C516.211 730.064 520.566 733.298 521.32 737.988C522.074 742.678 518.952 747.115 514.283 747.989C511.154 748.575 507.954 747.418 505.923 744.966C503.893 742.514 503.353 739.154 504.512 736.189C505.671 733.224 508.348 731.121 511.503 730.697Z"/><path fill="#FDA88D" d="M534.56 742.063C538.737 741.77 542.444 741.981 545.197 745.664C546.373 747.218 546.848 749.192 546.507 751.111C545.886 754.57 543.815 756.017 541.111 757.806C537.149 758.731 533.539 758.041 531.035 754.527C529.714 752.647 529.224 750.308 529.681 748.056C530.335 744.867 532.02 743.744 534.56 742.063Z"/><path fill="#FDA88D" d="M484.231 743.364C488.473 741.591 493.348 743.618 495.082 747.877C496.816 752.136 494.743 756.992 490.468 758.686C486.249 760.358 481.471 758.318 479.76 754.115C478.049 749.912 480.044 745.115 484.231 743.364Z"/><path fill="#8C470F" d="M519.667 581.028C527.351 582.903 534.972 585.023 542.52 587.385C558.09 593.05 576.725 599.696 586.691 613.603C587.559 614.988 588.381 616.466 589.491 617.648C591.425 618.589 590.745 617.912 591.813 619.512L591.788 621.044C591.423 623.991 592.04 631.403 592.212 634.638C592.499 636.622 592.656 637.262 591.384 639.071C590.08 641.242 585.41 648.66 584.667 650.511C585.249 652.595 585.514 652.353 584.469 654.64C577.956 654.993 574.808 657.786 568.732 660.488C563.077 663.006 556.979 664.38 550.791 664.533C548.103 664.644 545.389 664.778 542.701 664.855C530.878 663.75 523.515 664.407 510.844 661.9L510.485 661.663C510.562 659.497 510.653 658.925 510.207 656.849C509.174 655.956 495.248 650.388 492.449 649.033C480.968 628.262 488.645 595.205 508.873 582.495C513.359 581.366 511.831 584.64 519.667 581.028Z"/><path fill="#410401" d="M591.384 639.071C586.755 639.171 574.583 639.142 571.29 636.098C570.854 634.465 570.759 635.224 571.585 633.748C574 632.115 587.975 634.248 592.212 634.638C592.499 636.622 592.656 637.262 591.384 639.071Z"/><path fill="#410401" d="M584.469 654.64C583.561 654.604 582.654 654.528 581.752 654.414C577.564 653.888 567.705 652.775 565.274 649.643C565.287 647.818 565.045 648.7 566.441 647.048C568.775 646.057 579.887 650.346 584.667 650.511C585.249 652.595 585.514 652.353 584.469 654.64Z"/><path fill="#410401" d="M589.491 617.648C591.425 618.589 590.745 617.912 591.813 619.512L591.788 621.044C590.311 621.461 588.823 621.838 587.326 622.173C583.523 623.015 577.296 624.626 573.944 622.499C573.153 620.963 573.269 621.745 573.528 620.083C575.636 618.048 585.795 617.924 589.491 617.648Z"/><path fill="#FDCCA5" d="M460.502 640.149C469.338 645.688 480.934 652.844 490.771 656.197C495.293 658.006 505.421 660.957 510.485 661.663L510.844 661.9C514.617 675.226 517.362 683.173 522.867 695.82C524.107 701.309 527.066 705.553 529.488 710.5C520.239 707.553 518.587 707.31 508.952 707.376L502.312 708.707C498.59 709.648 496.475 710.455 492.873 711.875C492.478 711.494 488.237 705.857 487.298 704.777C479.275 695.548 471.724 690.14 460.534 685.308C457.915 675.246 459.036 650.761 460.502 640.149Z"/><path fill="#FC8215" d="M490.771 656.197C495.293 658.006 505.421 660.957 510.485 661.663L510.844 661.9C514.617 675.226 517.362 683.173 522.867 695.82C524.107 701.309 527.066 705.553 529.488 710.5C520.239 707.553 518.587 707.31 508.952 707.376C508.873 707.078 504.439 699.29 503.951 698.4C498.39 685.061 491.977 670.784 490.771 656.197Z"/><path fill="#F1C185" d="M503.951 698.4C504.439 699.29 508.873 707.078 508.952 707.376L502.312 708.707C503.585 706.851 503.731 701.008 503.951 698.4Z"/><path fill="#DF6A00" d="M460.502 640.149C445.768 630.274 433.141 617.57 423.357 602.775C421.579 600.059 417.713 594.894 419.176 591.656C420.773 590.708 419.959 590.853 421.653 591.001C422.493 591.6 432.749 605.674 434.885 608.2C448.146 623.878 463.223 635.581 481.771 644.428C484.311 645.64 489.705 648.782 492.449 649.033C495.248 650.388 509.174 655.956 510.207 656.849C510.653 658.925 510.562 659.497 510.485 661.663C505.421 660.957 495.293 658.006 490.771 656.197C480.934 652.844 469.338 645.688 460.502 640.149Z"/><path fill="#DF6A00" d="M487.157 715.07C477.772 699.778 454.139 687.193 436.126 687.419C431.488 687.477 416.287 691.861 414.095 690.499C413.216 687.889 416.525 685.605 418.645 684.811C432.606 679.583 446.613 680.582 460.534 685.308C471.724 690.14 479.275 695.548 487.298 704.777C488.237 705.857 492.478 711.494 492.873 711.875C490.878 712.905 489.091 713.945 487.157 715.07Z"/><path fill="#DF6A00" d="M508.873 582.495C504.021 579.758 499.079 578.14 493.543 574.533C480.15 565.805 466.193 551.726 458.615 537.52C457.838 536.064 457.869 535.696 458.251 534.486C459.853 533.447 459.789 533.516 461.574 533.313C463.889 535.026 471.877 545.665 474.82 548.858C479.097 554.412 484.47 558.988 489.996 563.283C493.589 565.793 504.533 573.187 508.281 573.841C509.312 574.327 510.47 574.838 511.471 575.356C515.684 577.378 516.784 577.483 519.667 581.028C511.831 584.64 513.359 581.366 508.873 582.495Z"/><path fill="#FBCB07" d="M771.662 486.238C782.78 498.402 791.068 519.502 796.005 535.015C797.211 538.805 798.774 546.644 800.463 549.489C827.89 542.092 837.278 585.626 826.189 603.425C823.636 607.605 819.458 610.534 814.657 611.508C811.185 612.192 807.513 611.682 804.163 610.629C807.482 617.483 803.762 651.233 801.675 660.001C800.699 664.099 796.355 677.523 796.492 680.627C800.531 682.521 804.72 684.564 808.805 686.316C810.933 687.547 816.221 691.406 818.329 689.575C821.263 687.027 824.499 683.709 827.042 680.729C834.62 672.127 845.548 665.066 856.462 661.417C873.637 655.674 886.19 659.597 892.322 677.263C895.894 684.617 897.108 686.071 893.052 693.614C892.378 696.657 891.386 700.575 891.484 703.628C891.237 707.116 891.005 710.771 891.257 714.274C892.513 731.743 880.95 754.904 869.128 767.082C856.271 779.792 841.067 782.616 823.414 782.557C816.965 782.535 803.474 781.585 797.819 779.113C792.469 777.926 782.309 774.996 777.437 774.4C762.962 772.629 750.269 770.816 735.983 768.114C731.076 770.672 726.46 774.574 721.71 777.523C706.44 787.073 689.104 792.825 671.153 794.296C669.04 794.471 660.681 795.836 659.161 795.063C654.446 795.762 644.072 795.556 638.98 795.532C612.968 795.729 589.354 788.559 567.432 774.696C566.578 773.764 563.843 759.292 563.35 756.904C556.563 734.417 549.668 722.08 529.488 710.5C527.066 705.553 524.107 701.309 522.867 695.82C517.362 683.173 514.617 675.226 510.844 661.9C523.515 664.407 530.878 663.75 542.701 664.855C545.389 664.778 548.103 664.644 550.791 664.533C559.125 688.574 575.214 714.907 596.034 729.811C599.105 732.429 606.167 737.324 609.805 738.947C615.428 742.368 620.38 744.371 626.558 746.558C643.151 751.433 666.547 754.984 682.982 748.033C686.557 747.354 691.809 745.56 695.117 744.056C729.033 728.635 749.433 701.168 762.681 667.893C762.871 666.253 764.672 661.312 765.255 659.412C777.437 619.742 774.721 583.629 761.603 544.937C758.641 537.374 755.355 530.862 751.639 523.678L751.985 522.865C753.474 519.291 760.506 509.841 763.292 505.02L764.235 507.656L764.781 507.873C766.504 502.588 769.005 496.25 770.185 490.932C770.673 488.732 770.341 489.384 771.398 486.856L771.662 486.238Z"/><path fill="#8C470F" d="M808.805 686.316C810.933 687.547 816.221 691.406 818.329 689.575C821.263 687.027 824.499 683.709 827.042 680.729C834.62 672.127 845.548 665.066 856.462 661.417C873.637 655.674 886.19 659.597 892.322 677.263C895.894 684.617 897.108 686.071 893.052 693.614C892.378 696.657 891.386 700.575 891.484 703.628C891.237 707.116 891.005 710.771 891.257 714.274C892.513 731.743 880.95 754.904 869.128 767.082C856.271 779.792 841.067 782.616 823.414 782.557C816.965 782.535 803.474 781.585 797.819 779.113C783.476 755.379 790.765 706.442 808.805 686.316Z"/><path fill="#FDA88D" d="M869.128 767.082C865.53 767.756 862.437 767.876 859.336 765.654C856.208 763.412 854.807 759.117 854.438 755.39C852.814 738.995 859.222 723.054 869.234 710.32C872.696 705.918 877.657 701.211 883.378 700.718C886.884 700.416 888.948 701.461 891.484 703.628C891.237 707.116 891.005 710.771 891.257 714.274C892.513 731.743 880.95 754.904 869.128 767.082Z"/><path fill="#FDA88D" d="M892.322 677.263C895.894 684.617 897.108 686.071 893.052 693.614C885.181 690.486 888.122 682.319 892.322 677.263Z"/><path fill="#FDA88D" d="M873.519 678.96C883.812 678.428 884.619 690.49 875.899 695.378C866.117 695.026 864.308 683.983 873.519 678.96Z"/><path fill="#FDE960" d="M510.844 661.9C523.515 664.407 530.878 663.75 542.701 664.855C545.389 664.778 548.103 664.644 550.791 664.533C559.125 688.574 575.214 714.907 596.034 729.811C599.105 732.429 606.167 737.324 609.805 738.947C615.428 742.368 620.38 744.371 626.558 746.558C643.151 751.433 666.547 754.984 682.982 748.033C686.557 747.354 691.809 745.56 695.117 744.056C729.033 728.635 749.433 701.168 762.681 667.893C763.017 675.507 747.829 699.046 742.861 706.267L743.328 706.638C745.796 705.903 746.158 705.668 747.232 703.401C750.023 697.509 753.706 691.976 756.85 686.25C757.091 687.527 751.181 697.853 750.024 699.769C721.621 746.837 676.472 770.609 623.264 752.252C619.824 757.512 605.508 779.968 602.431 783.32C608.322 786.784 625.506 793.304 632.03 793.467C634.775 793.897 636.752 793.933 638.98 795.532C612.968 795.729 589.354 788.559 567.432 774.696C566.578 773.764 563.843 759.292 563.35 756.904C556.563 734.417 549.668 722.08 529.488 710.5C527.066 705.553 524.107 701.309 522.867 695.82C517.362 683.173 514.617 675.226 510.844 661.9Z"/><path fill="#FBCB07" d="M591.995 733.571C596.302 737.257 600.015 740.496 604.899 743.487C598.717 754.074 591.726 763.426 585.282 773.644C580.565 770.405 575.991 767.113 571.68 763.341C577.907 755.674 585.81 742.184 591.995 733.571Z"/><path fill="#FC8215" d="M563.35 756.904C566.105 758.814 569.204 761.079 571.68 763.341C575.991 767.113 580.565 770.405 585.282 773.644C591.22 777.578 595.877 780.374 602.431 783.32C608.322 786.784 625.506 793.304 632.03 793.467C634.775 793.897 636.752 793.933 638.98 795.532C612.968 795.729 589.354 788.559 567.432 774.696C566.578 773.764 563.843 759.292 563.35 756.904Z"/><path fill="#FBCB07" d="M510.844 661.9C523.515 664.407 530.878 663.75 542.701 664.855C537.646 673.922 526.12 688.567 522.867 695.82C517.362 683.173 514.617 675.226 510.844 661.9Z"/><path fill="#FC8215" d="M796.492 680.627C800.531 682.521 804.72 684.564 808.805 686.316C790.765 706.442 783.476 755.379 797.819 779.113C792.469 777.926 782.309 774.996 777.437 774.4C762.962 772.629 750.269 770.816 735.983 768.114L739.849 764.893C762.585 746.052 780.333 721.905 791.529 694.582C793.23 690.475 796.114 684.982 796.492 680.627Z"/><path fill="#8C470F" d="M800.463 549.489C827.89 542.092 837.278 585.626 826.189 603.425C823.636 607.605 819.458 610.534 814.657 611.508C811.185 612.192 807.513 611.682 804.163 610.629C798.236 607.769 797.264 606.96 792.738 602.143C792.37 601.662 791.53 600.161 791.173 599.564C790.727 596.905 787.419 588.801 786.481 585.527C786.004 583.416 786.028 583.5 786.289 581.337C786.721 578.513 786.791 573.867 786.842 570.989C786.954 568.975 787.258 568.545 788.06 566.633C790.718 560.931 793.598 554.436 799.142 551.036L800.463 549.489Z"/><path fill="#410401" d="M786.289 581.337C790.562 580.888 802.879 578.806 806.042 581.511L806.036 582.379C802.746 585.347 791.082 585.642 786.481 585.527C786.004 583.416 786.028 583.5 786.289 581.337Z"/><path fill="#410401" d="M788.06 566.633C792.576 566.68 801.856 566.278 805.536 568.178L806.181 569.223C805.481 570.878 806.002 570.236 804.657 571.292C799.93 572.128 792.211 570.923 786.842 570.989C786.954 568.975 787.258 568.545 788.06 566.633Z"/><path fill="#410401" d="M791.173 599.564C791.317 599.479 808.046 593.306 808.296 593.286C809.94 594.507 809.42 593.756 810.152 595.432C808.494 599.567 797.017 601.971 792.738 602.143C792.37 601.662 791.53 600.161 791.173 599.564Z"/><path fill="#FDE960" d="M771.662 486.238C782.78 498.402 791.068 519.502 796.005 535.015C797.211 538.805 798.774 546.644 800.463 549.489L799.142 551.036C797.334 548.304 793.277 536.491 791.847 532.667C788.833 524.607 786.308 519.237 782.245 511.667C777.602 521.463 767.472 533.476 761.603 544.937C758.641 537.374 755.355 530.862 751.639 523.678L751.985 522.865C753.474 519.291 760.506 509.841 763.292 505.02L764.235 507.656L764.781 507.873C766.504 502.588 769.005 496.25 770.185 490.932C770.673 488.732 770.341 489.384 771.398 486.856L771.662 486.238Z"/><defs><linearGradient id="gradient_0" gradientUnits="userSpaceOnUse" x1="772.16095" y1="611.29205" x2="542.4696" y2="592.79614"><stop offset="0" stop-color="#DB8901"/><stop offset="1" stop-color="#FABA05"/></linearGradient></defs><path fill="url(#gradient_0)" d="M636.532 429.425L637.571 429.925L638.393 429.629C657.094 422.979 683.027 428.489 700.924 435.565C698.106 439.721 680.707 463.649 680.107 466.364C709.312 474.418 722.068 485.967 741.269 508.105L751.639 523.678C755.355 530.862 758.641 537.374 761.603 544.937C774.721 583.629 777.437 619.742 765.255 659.412C764.672 661.312 762.871 666.253 762.681 667.893C749.433 701.168 729.033 728.635 695.117 744.056C691.809 745.56 686.557 747.354 682.982 748.033C683.651 747.215 683.445 747.143 684.394 746.765C689.417 744.766 694.969 742.897 699.556 739.984C758.865 702.32 776.063 617.548 753.005 555.991C750.6 549.483 747.834 543.114 744.722 536.914C743.582 533.49 737.132 523.811 735.015 520.701C722.552 503.858 707.814 490.139 688.407 481.719C685.571 480.488 679.051 477.054 676.147 478.172C672.986 481.917 668.116 489.847 665.157 494.341L646.612 522.615C633.3 543.335 618.905 564.554 605.332 585.262L593.541 603.133C592.137 605.304 588.076 612.027 586.691 613.603C576.725 599.696 558.09 593.05 542.52 587.385C534.972 585.023 527.351 582.903 519.667 581.028C516.784 577.483 515.684 577.378 511.471 575.356C513.731 570.516 516.099 554.073 517.971 547.8C528.245 513.377 546.483 481.734 573.752 458.026C576.468 455.665 580.405 454.982 581.922 452.84C589.758 450.438 593.159 448.553 598.194 441.863C598.285 441.869 610.454 437.342 610.93 437.085C622.241 438.983 628.028 437.136 636.532 429.425Z"/><path fill="#FBCB07" d="M636.532 429.425L637.571 429.925L638.393 429.629C657.094 422.979 683.027 428.489 700.924 435.565C698.106 439.721 680.707 463.649 680.107 466.364C618.825 453.618 573.211 491.048 551.686 545.725C547.95 555.216 546.133 565.781 543.637 575.631C542.783 579 543.283 585.158 542.52 587.385C534.972 585.023 527.351 582.903 519.667 581.028C516.784 577.483 515.684 577.378 511.471 575.356C513.731 570.516 516.099 554.073 517.971 547.8C528.245 513.377 546.483 481.734 573.752 458.026C576.468 455.665 580.405 454.982 581.922 452.84C589.758 450.438 593.159 448.553 598.194 441.863C598.285 441.869 610.454 437.342 610.93 437.085C622.241 438.983 628.028 437.136 636.532 429.425Z"/><path fill="#F7B11B" d="M626.558 746.558C630.427 741.996 636.607 732.264 640.118 726.977C648.125 714.965 656.04 702.892 663.863 690.76C686.637 655.818 709.713 621.074 733.087 586.531C739.7 576.834 746.045 565.336 753.005 555.991C776.063 617.548 758.865 702.32 699.556 739.984C694.969 742.897 689.417 744.766 684.394 746.765C683.445 747.143 683.651 747.215 682.982 748.033C666.547 754.984 643.151 751.433 626.558 746.558Z"/><path fill="#FBCB07" d="M609.805 738.947C613.936 733.979 619.212 725.309 622.976 719.637L647.291 682.923L722.69 569.183C726.063 564.122 741.505 539.323 744.722 536.914C747.834 543.114 750.6 549.483 753.005 555.991C746.045 565.336 739.7 576.834 733.087 586.531C709.713 621.074 686.637 655.818 663.863 690.76C656.04 702.892 648.125 714.965 640.118 726.977C636.607 732.264 630.427 741.996 626.558 746.558C620.38 744.371 615.428 742.368 609.805 738.947Z"/><path fill="#F7B11B" d="M735.015 520.701C737.132 523.811 743.582 533.49 744.722 536.914C741.505 539.323 726.063 564.122 722.69 569.183L647.291 682.923L622.976 719.637C619.212 725.309 613.936 733.979 609.805 738.947C606.167 737.324 599.105 732.429 596.034 729.811C598.665 726.721 602.968 719.477 605.538 715.803C615.222 701.958 624.309 687.23 633.769 673.262L697.062 577.989L725.456 534.561C728.538 529.83 732.081 525.464 735.015 520.701Z"/><path fill="#FC8215" d="M465.754 216.36C483.21 209.85 500.542 204.086 518.821 200.305C523.73 199.289 544.675 197.61 547.1 195.571C549.466 193.582 554.299 177.76 556.193 173.643C561.703 161.662 567.306 149.586 573.445 137.918C582.01 121.642 613.102 66.361 627.102 58.4955C630.655 56.4998 635.034 55.9225 638.929 57.215C650.094 60.9197 653.538 75.5597 658.186 84.8375C658.884 86.4693 662.8 95.9044 663.422 96.7995C666.441 105.215 670.585 114.788 673.249 123.061C684.917 159.289 693.479 199.704 692.285 237.901C692.053 245.303 691.105 261.449 689.395 268.481C703.579 286.089 748.289 310.152 757.379 326.012C757.423 328.648 757.578 330.68 757.057 333.279C754.289 340.938 746.278 350.275 739.669 354.257C766.204 371.399 759.895 373.074 738.031 391.775C728.744 399.718 719.285 407.852 710.352 416.21C706.84 419.492 702.223 422.911 699.044 426.314C684.906 422.875 672.357 420.224 657.789 419.112C653.962 418.82 644.078 420.094 641.755 419.159C640.088 423.156 639.008 425.83 636.532 429.425C628.028 437.136 622.241 438.983 610.93 437.085C610.454 437.342 598.285 441.869 598.194 441.863C593.159 448.553 589.758 450.438 581.922 452.84C580.405 454.982 576.468 455.665 573.752 458.026C546.483 481.734 528.245 513.377 517.971 547.8C516.099 554.073 513.731 570.516 511.471 575.356C510.47 574.838 509.312 574.327 508.281 573.841C504.533 573.187 493.589 565.793 489.996 563.283C484.47 558.988 479.097 554.412 474.82 548.858C475.916 540.6 483.592 508.537 486.4 501.01C469.645 497.832 452.656 496.778 436.074 492.169C431.555 490.913 426.64 490.074 422.38 488.008C416.902 482.563 381.542 481.67 372.029 479.413C366.413 478.081 359.684 476.618 356.115 471.299C351.016 463.701 362.19 455.347 364.2 448.877C364.408 448.207 363.938 448.017 363.283 447.25C350.262 445.298 328.001 439.694 335.156 422.231C345.562 396.827 361.882 373.002 371.218 347.081C333.738 301.863 318.637 220.951 317.611 163.095C317.45 154.007 315.2 139.736 321.496 132.547C330.994 121.702 344.158 131.36 353.899 136.293C393.642 157.63 433.322 184.878 465.754 216.36Z"/><path fill="#FDCCA5" d="M363.283 447.25C365.509 446.334 382.911 430.502 387.942 427.123C404.875 415.749 422.922 406.234 443.571 404.155C460.788 402.421 476.247 409.838 492.784 412.515C512.674 415.779 528.427 413.124 543.096 398.79C549.046 392.975 555.718 386.576 562.427 381.625C575.567 372.189 594.927 369.719 610.001 375.72C613.207 376.997 626.099 382.659 628.74 382.638C651.603 381.572 669.005 359.648 686.281 346.505C706.695 330.975 732.339 329.741 757.057 333.279C754.289 340.938 746.278 350.275 739.669 354.257C766.204 371.399 759.895 373.074 738.031 391.775C728.744 399.718 719.285 407.852 710.352 416.21C706.84 419.492 702.223 422.911 699.044 426.314C684.906 422.875 672.357 420.224 657.789 419.112C653.962 418.82 644.078 420.094 641.755 419.159C640.088 423.156 639.008 425.83 636.532 429.425C628.028 437.136 622.241 438.983 610.93 437.085C610.454 437.342 598.285 441.869 598.194 441.863C593.159 448.553 589.758 450.438 581.922 452.84C580.405 454.982 576.468 455.665 573.752 458.026C546.483 481.734 528.245 513.377 517.971 547.8C516.099 554.073 513.731 570.516 511.471 575.356C510.47 574.838 509.312 574.327 508.281 573.841C504.533 573.187 493.589 565.793 489.996 563.283C484.47 558.988 479.097 554.412 474.82 548.858C475.916 540.6 483.592 508.537 486.4 501.01C469.645 497.832 452.656 496.778 436.074 492.169C431.555 490.913 426.64 490.074 422.38 488.008C416.902 482.563 381.542 481.67 372.029 479.413C366.413 478.081 359.684 476.618 356.115 471.299C351.016 463.701 362.19 455.347 364.2 448.877C364.408 448.207 363.938 448.017 363.283 447.25Z"/><path fill="#FDE960" d="M554.35 468.748C556.707 465.923 567.847 453.382 570.827 452.716C575.422 453.374 577.119 453.466 581.922 452.84C580.405 454.982 576.468 455.665 573.752 458.026C546.483 481.734 528.245 513.377 517.971 547.8C516.099 554.073 513.731 570.516 511.471 575.356C510.47 574.838 509.312 574.327 508.281 573.841C504.533 573.187 493.589 565.793 489.996 563.283C490.712 561.529 492.718 551.56 493.299 549.081C495.086 541.232 497.553 533.553 500.672 526.132C503.374 519.672 505.915 513.291 509.128 507.066C514.005 497.797 518.515 490.261 524.916 481.88C526.765 478.86 532.764 471.876 535.245 469.304L535.776 469.633C540.182 468.581 550.022 467.504 554.35 468.748Z"/><path fill="#FC8215" d="M500.672 526.132C504.116 526.297 517.189 526.351 519.318 526.8L519.82 527.359C515.729 538.037 508.924 562.468 508.281 573.841C504.533 573.187 493.589 565.793 489.996 563.283C490.712 561.529 492.718 551.56 493.299 549.081C495.086 541.232 497.553 533.553 500.672 526.132Z"/><path fill="#FC8215" d="M535.245 469.304L535.776 469.633C540.182 468.581 550.022 467.504 554.35 468.748C552.984 470.452 545.545 480.257 544.419 481.095C538.661 489.705 533.17 498.224 528.391 507.436C522.975 506.967 515.011 507.292 509.128 507.066C514.005 497.797 518.515 490.261 524.916 481.88C526.765 478.86 532.764 471.876 535.245 469.304Z"/><path fill="#F7B11B" d="M535.245 469.304L535.776 469.633C540.182 468.581 550.022 467.504 554.35 468.748C552.984 470.452 545.545 480.257 544.419 481.095C538.997 481.481 530.192 482.056 524.916 481.88C526.765 478.86 532.764 471.876 535.245 469.304Z"/><path fill="#F7B11B" d="M509.128 507.066C515.011 507.292 522.975 506.967 528.391 507.436C525.183 513.85 522.445 520.681 519.82 527.359L519.318 526.8C517.189 526.351 504.116 526.297 500.672 526.132C503.374 519.672 505.915 513.291 509.128 507.066Z"/><path fill="#8C470F" d="M594.805 417.105C592.443 414.812 575.231 412.16 567.441 403.407C566.199 402.012 565.23 400.254 565.525 398.321C565.84 396.25 567.481 394.616 569.04 393.366C578.144 386.066 594.918 381.047 606.528 382.73C608.578 383.027 610.764 383.707 611.907 385.586C617.474 394.737 600.156 412.377 599.54 416.594C597.823 416.943 596.533 417.352 594.805 417.105Z"/><path fill="#8C470F" d="M599.54 416.594C601.213 421.941 602.5 426.571 608.046 429.338C612.668 431.644 620.38 432.202 625.305 430.418C629.594 428.944 631.653 426.129 633.596 422.236C636.129 417.162 634.899 411.865 636.573 406.774C636.92 405.721 639.189 405.476 640.442 406.057C642.453 408.969 642.075 415.689 641.755 419.159C640.088 423.156 639.008 425.83 636.532 429.425C628.028 437.136 622.241 438.983 610.93 437.085C610.454 437.342 598.285 441.869 598.194 441.863C593.159 448.553 589.758 450.438 581.922 452.84C577.119 453.466 575.422 453.374 570.827 452.716C566.13 451.579 563.075 449.97 559.409 446.918C556.701 443.962 551.732 437.584 553.058 433.359L554.281 432.953C560.062 434.048 559.742 440.972 565.326 444.183C574.478 449.445 587.004 447.546 592.906 438.354C597.517 431.173 596.292 424.862 594.805 417.105C596.533 417.352 597.823 416.943 599.54 416.594Z"/><path fill="#FDE960" d="M601.716 432.368C605.029 434.386 607.252 435.808 610.93 437.085C610.454 437.342 598.285 441.869 598.194 441.863C599.736 438.761 600.644 435.657 601.716 432.368Z"/><path fill="#FC8215" d="M559.409 446.918C563.075 449.97 566.13 451.579 570.827 452.716C567.847 453.382 556.707 465.923 554.35 468.748C550.022 467.504 540.182 468.581 535.776 469.633L535.245 469.304C544.364 458.962 548.605 455.326 559.409 446.918Z"/><path fill="#FEFEFE" d="M496.752 311.68C497.749 311.61 498.749 311.588 499.748 311.613C529.281 312.316 541.662 346.072 541.565 371.333C541.523 382.388 536.441 391.128 528.412 398.551C523.262 396.476 518.021 395.506 512.613 394.414C500.071 392.222 490.575 392.788 478.107 392.431C468.333 386.11 466.081 370.867 464.185 360.194C459.956 336.4 471.301 314.675 496.752 311.68Z"/><path fill="#8C470F" d="M504.385 331.646C530.547 329.205 542.646 379.592 514.054 384.526C501.236 383.324 489.881 371.771 492.868 358.158C493.929 353.319 497.1 353.887 500.646 351.774C507.161 347.893 500.514 337.894 497.992 333.625L504.385 331.646Z"/><path fill="#FEFEFE" d="M621.905 279.205C632.066 278.506 641.205 282.718 647.961 290.294C658.608 302.232 665.085 320.342 665.378 336.301C665.412 338.129 664.752 341.402 663.498 342.774C657.658 349.292 648.797 352.591 641.562 357.473C635.808 361.356 632.115 364.585 627.09 369.088L621.618 374.382C597.429 367.16 592.442 348.528 588.446 325.597C584.457 302.705 598.034 281.698 621.905 279.205Z"/><path fill="#8C470F" d="M614.217 303.611C638.988 301.409 650.717 352.573 621.379 356.636C604.825 355.511 602.238 341.614 600.252 328.045C600.951 327.808 601.644 327.555 602.331 327.286C615.619 322.016 611.14 315.581 606.407 305.551C609.147 304.726 611.43 304.221 614.217 303.611Z"/><path fill="#FDCCA5" d="M356.08 179.432C356.912 179.447 357.685 179.499 358.499 179.555C362.722 179.847 369.674 182.652 373.245 184.653C388.549 193.23 425.551 219.685 436.117 232.541C426.369 241.487 425.488 243.889 411.69 244.412C390.543 245.214 393.802 251.527 405.757 264.059L403.026 268.044C394.864 279.68 389.054 294.707 383.948 307.863C378.962 298.368 374.504 288.604 370.594 278.618C360.793 253.892 350.339 217.593 352.73 190.484C353.074 186.592 354.547 182.982 356.08 179.432Z"/><path fill="#FDCCA5" d="M627.815 114.818C631.689 115.594 635.899 118.082 637.909 121.281C653.394 145.924 663.48 214.079 660.492 240.719C651.545 231.319 641.583 222.94 630.789 215.736C627.79 213.901 626.62 213.1 623.945 210.837C627.156 198.301 628.216 189.48 611.37 195.713C607.266 197.232 603.24 199.195 599.254 201.004C592.776 199.601 587.978 198.833 581.407 197.052C583.495 192.263 585.429 186.402 587.586 181.648C596.318 162.408 612.266 128.745 627.815 114.818Z"/><path fill="#DF6A00" d="M606.437 245.695C612.317 244.826 624.735 245.066 630.264 247.154C635.525 249.14 637.092 250.847 639.33 255.6C636.793 265.067 632.49 262.739 624.12 261.677C617.868 261.071 612.016 261.15 605.605 261.448C602.418 261.889 591.627 261.205 591.161 256.785C590.136 247.071 601.122 246.408 606.437 245.695Z"/><path fill="#DF6A00" d="M487.542 275.609C498.295 275.922 500.469 283.936 491.366 289.848C484.664 294.2 477.467 296.441 471.166 301.277C469.066 302.888 466.861 304.258 464.549 305.532C463.933 305.799 463.309 306.05 462.679 306.284C460.137 307.203 455.697 306.83 455.407 303.502C454.193 289.568 476.322 277.488 487.542 275.609Z"/><path fill="#DF6A00" d="M123.533 494.46C123.855 492.295 124.292 489.443 125.885 487.717C139.523 472.94 168.967 466.86 188.394 463.783C193.605 463.045 198.913 463.344 204.136 463.054C232.725 461.469 267.344 470.378 290.002 487.995C325.563 512.711 352.315 564.858 365.904 604.625C368.827 613.18 375.356 636.975 378.775 643.194L378.665 643.687C377.032 650.785 373.748 659.571 371.825 666.937C366.276 688.189 365.077 706.362 366.983 728.042C358.473 730.313 350.743 734.293 341.357 736.584C311.813 743.754 280.745 739.783 254.34 724.912C200.765 694.736 184.437 635.243 170.52 579.162C164.603 555.87 157.485 526.503 138.355 510.079C131.563 504.247 127.109 503.542 123.533 494.46Z"/><path fill="#FDCCA5" d="M123.533 494.46C123.855 492.295 124.292 489.443 125.885 487.717C139.523 472.94 168.967 466.86 188.394 463.783C193.605 463.045 198.913 463.344 204.136 463.054C232.725 461.469 267.344 470.378 290.002 487.995C288.309 493.703 287.241 497.82 281.547 501.106C272.431 506.366 256.989 497.598 250.794 508.459C251.067 510.514 251.644 524.503 250.83 525.924C253.377 534.736 261.036 551.592 249.307 556.195C235.26 561.706 210.347 538.151 201.782 554.473C193.285 570.666 199.961 600.08 170.52 579.162C164.603 555.87 157.485 526.503 138.355 510.079C131.563 504.247 127.109 503.542 123.533 494.46Z"/><path fill="#CF6100" d="M250.794 508.459C251.067 510.514 251.644 524.503 250.83 525.924C249.197 519.959 247.828 514.13 250.794 508.459Z"/><path fill="#FDE960" d="M641.755 419.159C644.078 420.094 653.962 418.82 657.789 419.112C672.357 420.224 684.906 422.875 699.044 426.314L699.74 426.722C704.977 429.763 710.56 431.979 715.972 434.642C726.31 439.727 737.702 447.309 745.31 456.008C758.352 450.737 760.546 434.255 764.79 422.731C766.062 430.091 769.185 438.912 772.45 445.624C779.062 459.215 794.907 459.6 806.605 464.539C793.379 467.342 776.238 471.489 771.662 486.238L771.398 486.856C770.341 489.384 770.673 488.732 770.185 490.932C769.005 496.25 766.504 502.588 764.781 507.873L764.235 507.656L763.292 505.02C760.506 509.841 753.474 519.291 751.985 522.865L751.639 523.678L741.269 508.105C722.068 485.967 709.312 474.418 680.107 466.364C680.707 463.649 698.106 439.721 700.924 435.565C683.027 428.489 657.094 422.979 638.393 429.629L637.571 429.925L636.532 429.425C639.008 425.83 640.088 423.156 641.755 419.159Z"/><path fill="#F7B11B" d="M764.79 422.731C766.062 430.091 769.185 438.912 772.45 445.624C779.062 459.215 794.907 459.6 806.605 464.539C793.379 467.342 776.238 471.489 771.662 486.238L771.398 486.856C770.341 489.384 770.673 488.732 770.185 490.932C769.005 496.25 766.504 502.588 764.781 507.873L764.235 507.656L763.292 505.02C762.958 501.118 758.812 488.844 755.838 486.498C757.889 481.088 748.336 474.75 744.151 472.616C736.56 468.745 728.495 466.728 720.293 464.692C729.007 462.508 737.558 460.728 745.31 456.008C758.352 450.737 760.546 434.255 764.79 422.731Z"/><path fill="#FBCB07" d="M755.838 486.498C758.812 488.844 762.958 501.118 763.292 505.02C760.506 509.841 753.474 519.291 751.985 522.865L751.639 523.678L741.269 508.105C745.173 501.147 751.125 493.127 755.838 486.498Z"/><path fill="#F7B11B" d="M263.984 436.806C262.042 429.771 259.182 422.935 252.354 419.416C248.882 417.627 242.281 415.172 238.488 415.645L237.967 415.1C238.76 413.951 250.907 410.903 254.453 409.166C262.287 405.33 263.341 389.75 265.839 387.179C267.186 388.804 267.47 392.172 267.969 394.406C270.929 407.674 281.45 411.336 293.27 414.545C283.681 418.201 274.594 418.397 270.051 429.315C268.977 431.895 267.039 436.935 266.519 439.519L263.984 436.806Z"/><path fill="#F7B11B" d="M718.42 819.107C721.272 820.962 722.308 829.537 726.601 833.79C732.024 839.163 737.866 837.572 742.339 840.685L742.377 841.376C741.046 842.603 733.231 842.563 728.837 845.821C722.376 850.613 721.946 855.35 720.326 862.835L719.666 862.923C717.588 860.681 717.353 852.586 710.49 845.254C707.934 844.496 698.626 842.377 697.84 840.427C699.992 838.762 706.818 838.163 710.509 835.799C715.739 832.45 716.91 824.936 718.42 819.107Z"/><path fill="#F7B11B" d="M835.718 401.863C837.199 403.107 838.242 408.542 839.373 411.173C842.466 418.365 847.393 417.81 853.973 420.495L854.184 421.192C852.53 422.361 850.009 422.981 848.047 423.502C838.453 426.053 840.045 431.861 836.417 438.696C834.722 437.007 833.488 430.062 831.942 428.09C828.532 423.738 819.762 421.656 814.686 420.837C822.572 419.608 824.777 419.084 831.477 414.533C833.948 409.785 834.583 407.101 835.718 401.863Z"/><path fill="#F7B11B" d="M794.54 360.8C795.68 363.819 795.175 365.624 797.83 369.319C801.132 373.918 805.778 374.338 811.005 375.362C791.216 379.22 798.847 385.583 793.713 389.528C790.466 379.351 788.1 377.712 777.589 375.689C778.879 375.435 780.16 375.14 781.432 374.806C790.699 372.408 790.078 368.376 794.54 360.8Z"/><path fill="#46220C" fill-opacity="0.98823529" d="M568.496 786.768C570.208 791.287 570.217 803.62 568.986 808.125C568.09 805.397 568.462 790.525 568.496 786.768Z"/><path fill="#010002" fill-opacity="0.023529412" d="M765.871 414.477C765.613 416.491 764.067 417.312 762.193 417.178L762.335 416.422C761.026 416.112 761.308 416.39 760.44 415.61C762.861 414.726 763.425 415.994 765.871 414.477Z"/><path fill="#F1C185" d="M263.984 436.806L266.519 439.519C266.157 441.212 266.395 441.409 265.404 442.564C264.463 441.525 264.228 438.381 263.984 436.806Z"/></svg>